<?xml version="1.0" standalone="no"?>
<!DOCTYPE svg PUBLIC "-//W3C//DTD SVG 20010904//EN"
 "http://www.w3.org/TR/2001/REC-SVG-20010904/DTD/svg10.dtd">
<svg version="1.0" xmlns="http://www.w3.org/2000/svg"
 width="300.000000pt" height="300.000000pt" viewBox="0 0 300.000000 300.000000"
 preserveAspectRatio="xMidYMid meet">
<metadata>
Created by potrace 1.14, written by Peter Selinger 2001-2017
</metadata>
<g transform="translate(0.000000,300.000000) scale(0.100000,-0.100000)"
fill="#000000" stroke="none">
<path d="M1260 2985 c-578 -99 -1043 -511 -1204 -1066 -46 -161 -59 -273 -53
-467 7 -243 50 -419 150 -619 223 -442 623 -736 1115 -818 128 -22 414 -16
532 10 555 122 989 523 1144 1056 46 160 59 273 53 467 -7 246 -49 415 -152
622 -219 437 -619 730 -1109 815 -108 18 -368 19 -476 0z m-149 -621 c55 -31
103 -64 106 -72 4 -8 0 -50 -9 -93 -15 -78 -15 -78 11 -125 22 -40 41 -57 124
-106 55 -32 103 -58 108 -58 5 0 9 18 9 39 0 35 -9 51 -75 128 -73 86 -87 117
-63 141 21 21 38 13 86 -39 l47 -51 5 92 c4 74 9 95 23 104 12 8 22 8 35 0 14
-9 18 -28 20 -103 1 -50 6 -91 10 -91 4 1 23 21 42 45 40 51 54 59 81 45 35
-19 22 -52 -56 -142 -67 -78 -75 -91 -75 -129 0 -49 -4 -50 125 26 75 44 98
63 118 98 24 44 24 45 9 124 -8 44 -13 87 -9 96 7 19 198 127 224 127 38 0 43
-19 43 -151 0 -89 -4 -130 -12 -137 -7 -5 -46 -20 -86 -33 -65 -21 -75 -27
-98 -66 -23 -40 -24 -50 -22 -168 l3 -125 37 25 c31 21 40 37 67 118 46 136
67 160 106 117 17 -19 17 -22 -4 -81 -13 -33 -21 -62 -19 -64 1 -2 38 17 80
42 64 37 80 42 98 33 37 -20 26 -57 -26 -88 -25 -15 -59 -35 -76 -45 -17 -10
-28 -20 -26 -22 3 -3 28 -9 58 -15 59 -11 80 -24 80 -50 0 -39 -25 -44 -128
-26 -54 9 -107 19 -117 22 -11 2 -37 -6 -59 -19 l-38 -24 109 -61 c93 -53 117
-62 159 -62 45 0 54 4 111 55 39 35 70 55 85 54 12 0 68 -28 123 -62 83 -52
100 -67 100 -87 0 -20 -17 -35 -100 -87 -55 -34 -111 -62 -123 -62 -15 -1 -46
19 -85 54 -58 51 -65 55 -112 55 -42 0 -65 -9 -149 -58 -55 -31 -101 -62 -103
-68 -2 -5 12 -17 31 -26 32 -16 41 -15 149 5 96 17 118 19 131 8 20 -16 21
-45 3 -60 -8 -6 -38 -15 -67 -21 -54 -10 -73 -20 -55 -27 6 -2 39 -20 75 -41
51 -30 66 -44 68 -64 2 -19 -3 -30 -18 -38 -18 -10 -32 -5 -98 34 -42 25 -78
44 -79 42 -2 -1 7 -31 18 -65 l21 -63 -20 -21 c-35 -34 -59 -7 -102 113 -31
89 -42 109 -71 128 l-34 23 -3 -124 c-2 -116 -1 -126 22 -168 23 -41 31 -47
98 -68 40 -13 79 -28 86 -33 8 -7 12 -48 12 -137 0 -131 -6 -151 -42 -151 -25
0 -218 110 -225 128 -4 8 0 50 9 93 15 78 15 78 -11 125 -22 40 -41 57 -124
106 -55 32 -103 58 -108 58 -5 0 -9 -18 -9 -39 0 -35 9 -51 75 -128 73 -86 87
-117 63 -141 -21 -21 -38 -13 -86 39 l-47 51 -5 -92 c-4 -74 -9 -95 -22 -104
-13 -8 -23 -8 -35 0 -15 9 -19 28 -21 103 -1 50 -6 91 -10 91 -4 -1 -23 -21
-42 -45 -40 -51 -54 -59 -81 -45 -35 19 -22 52 56 142 67 78 75 91 75 129 0
49 4 50 -125 -26 -75 -44 -98 -63 -118 -98 -24 -44 -24 -45 -9 -124 8 -44 13
-87 9 -96 -7 -19 -198 -127 -224 -127 -38 0 -43 19 -43 151 0 89 4 130 13 137
6 5 45 20 85 33 65 21 75 27 98 66 23 40 24 50 22 168 l-3 125 -37 -25 c-31
-21 -40 -37 -67 -118 -46 -136 -67 -160 -106 -117 -17 19 -17 22 4 81 13 33
21 62 19 64 -1 2 -38 -17 -80 -42 -64 -37 -80 -42 -98 -33 -37 20 -26 57 26
88 25 15 59 35 76 45 17 10 28 20 26 22 -3 3 -28 9 -58 15 -59 11 -80 24 -80
50 0 39 25 44 128 26 54 -9 107 -19 117 -22 11 -2 37 6 59 19 l38 24 -109 61
c-93 53 -117 62 -159 62 -45 0 -54 -4 -111 -55 -39 -35 -70 -55 -85 -54 -12 0
-68 28 -123 62 -83 52 -100 67 -100 87 0 20 17 35 100 87 55 34 111 62 123 62
15 1 46 -19 85 -54 58 -51 65 -55 112 -55 42 0 65 9 149 58 55 31 101 62 103
68 2 5 -12 17 -31 26 -32 16 -41 15 -149 -5 -96 -17 -118 -19 -131 -8 -20 16
-21 45 -3 60 8 6 38 15 67 21 54 10 73 20 55 27 -5 2 -39 20 -75 41 -51 30
-66 44 -68 64 -2 19 3 30 18 38 18 10 32 5 98 -34 42 -25 78 -44 79 -42 2 1
-7 31 -18 65 l-21 63 20 21 c35 34 59 7 102 -113 31 -89 42 -109 71 -128 l34
-23 3 124 c2 116 1 126 -22 168 -23 41 -31 47 -98 68 -40 13 -79 28 -85 33 -9
7 -13 48 -13 137 0 178 6 181 161 95z"/>
<path d="M1030 2252 l0 -59 41 -12 c23 -7 43 -11 45 -9 1 2 6 22 10 44 6 41 6
41 -41 68 -26 14 -49 26 -51 26 -2 0 -4 -26 -4 -58z"/>
<path d="M1916 2284 l-48 -26 6 -41 c4 -23 9 -43 10 -45 2 -2 22 2 45 9 l41
12 0 59 c0 32 -1 58 -2 58 -2 -1 -25 -12 -52 -26z"/>
<path d="M1260 1803 l0 -118 93 -52 c52 -29 97 -53 100 -53 4 0 7 51 7 113 l0
112 -63 36 c-34 20 -79 47 -99 59 l-38 22 0 -119z"/>
<path d="M1638 1862 l-98 -57 0 -112 c0 -62 3 -113 6 -113 3 0 48 24 100 53
l94 52 0 118 c0 64 -1 117 -2 116 -2 0 -47 -26 -100 -57z"/>
<path d="M1113 1557 c-51 -28 -93 -54 -93 -57 0 -6 184 -110 195 -110 11 0
195 104 195 110 0 8 -180 110 -193 110 -7 0 -54 -24 -104 -53z"/>
<path d="M1683 1557 c-51 -28 -93 -54 -93 -57 0 -7 180 -110 192 -110 13 0
198 103 198 110 0 7 -184 110 -196 110 -5 0 -51 -24 -101 -53z"/>
<path d="M617 1532 c-26 -15 -47 -29 -47 -32 0 -3 21 -17 48 -32 l47 -26 34
27 c37 30 36 39 -7 70 l-28 19 -47 -26z"/>
<path d="M2300 1529 l-35 -29 34 -30 34 -29 49 27 c26 15 48 29 48 32 0 3 -21
17 -48 32 l-47 26 -35 -29z"/>
<path d="M1353 1367 l-93 -52 0 -118 0 -118 43 26 c23 14 68 40 100 58 l57 32
0 112 c0 62 -3 113 -7 113 -5 -1 -50 -24 -100 -53z"/>
<path d="M1540 1308 l0 -113 63 -36 c34 -20 79 -47 100 -59 l37 -22 0 119 0
118 -93 53 c-52 28 -97 52 -100 52 -4 0 -7 -51 -7 -112z"/>
<path d="M1063 818 c-32 -11 -33 -12 -33 -70 l0 -58 50 25 c52 26 54 31 44 84
-7 33 -11 35 -61 19z"/>
<path d="M1876 799 c-10 -52 -8 -56 40 -83 26 -14 48 -26 50 -26 2 0 4 26 4
58 l0 59 -39 11 c-50 16 -48 17 -55 -19z"/>
</g>
</svg>
