<svg width="211" height="117" viewBox="0 0 211 117" fill="none" xmlns="http://www.w3.org/2000/svg">
<g clip-path="url(#clip0_13_748)">
<path d="M25.1005 24.8246V23.0974L24.491 22.4866L24.8133 22.1636L24.491 21.8407L25.1005 21.2299V19.5027L24.491 18.8919L24.8133 18.5689L24.491 18.246L25.1005 17.6352V15.908L24.491 15.2972L24.8133 14.9742L24.491 14.6513L25.1005 14.0404V12.3133L24.491 11.7025L24.8133 11.3795L24.491 11.0566L25.1005 10.4457V8.7186L24.491 8.10778L24.8133 7.78482L24.491 7.46185L25.1005 6.85104V5.12389L24.491 4.51307L24.8133 4.19011L24.491 3.86715L25.1005 3.25633V1.51046L24.491 0.897303L24.8133 0.574341L25.4251 1.18516H27.1485L27.758 0.574341L28.0802 0.897303L27.4707 1.50812V3.23527L28.0802 3.84609L27.758 4.16905L28.0802 4.49201L27.4707 5.10283V6.82997L28.0802 7.44079L27.758 7.76375L28.0802 8.08672L27.4707 8.69754V10.4247L28.0802 11.0355L27.758 11.3585L28.0802 11.6814L27.4707 12.2922V14.0194L28.0802 14.6302L27.758 14.9532L28.0802 15.2761L27.4707 15.8869V17.6141L28.0802 18.2249L27.758 18.5479L28.0802 18.8708L27.4707 19.4817V21.2088L28.0802 21.8196L27.758 22.1426L28.0802 22.4655L27.4707 23.0764V24.8035L28.0802 25.4143L27.758 25.7373L27.1485 25.1265H25.4251L24.8156 25.7373L24.4934 25.4143L25.1028 24.8035L25.1005 24.8246ZM27.758 4.17139L27.1485 3.56057H25.4251L24.8156 4.17139L25.4251 4.78221H27.1485L27.758 4.17139ZM27.758 7.76843L27.1485 7.15762H25.4251L24.8156 7.76843L25.4251 8.37925H27.1485L27.758 7.76843ZM27.758 11.3655L27.1485 10.7547H25.4251L24.8156 11.3655L25.4251 11.9763H27.1485L27.758 11.3655ZM27.758 14.9625L27.1485 14.3517H25.4251L24.8156 14.9625L25.4251 15.5733H27.1485L27.758 14.9625ZM27.758 18.5596L27.1485 17.9488H25.4251L24.8156 18.5596L25.4251 19.1704H27.1485L27.758 18.5596ZM24.8133 22.1613L25.4228 22.7721H27.1461L27.7556 22.1613L27.1461 21.5505H25.4251L24.8156 22.1613H24.8133ZM28.692 3.23761V1.51046L28.0825 0.899643L28.4048 0.576681L29.0143 1.1875H30.7377L31.3471 0.576681L31.6694 0.899643L31.0599 1.51046V3.23761L31.6694 3.84843L31.3471 4.17139L30.7377 3.56057H29.0143L28.4048 4.17139L28.0825 3.84843L28.692 3.23761ZM28.692 24.8246V23.0974L28.0825 22.4866L28.4048 22.1636L29.0143 22.7745H30.7377L31.3471 22.1636L31.6694 22.4866L31.0599 23.0974V24.8246L31.6694 25.4354L31.3471 25.7584L30.7377 25.1475H29.0143L28.4048 25.7584L28.0825 25.4354L28.692 24.8246ZM32.2812 3.23761V1.51046L31.6717 0.899643L31.994 0.576681L32.6035 1.1875H34.3268L34.9363 0.576681L35.2586 0.899643L34.6491 1.51046V3.23761L35.2586 3.84843L34.9363 4.17139L34.3268 3.56057H32.6035L31.994 4.17139L31.6717 3.84843L32.2812 3.23761ZM32.2812 24.8246V23.0974L31.6717 22.4866L31.994 22.1636L32.6035 22.7745H34.3268L34.9363 22.1636L35.2586 22.4866L34.6491 23.0974V24.8246L35.2586 25.4354L34.9363 25.7584L34.3268 25.1475H32.6035L31.994 25.7584L31.6717 25.4354L32.2812 24.8246ZM35.8704 3.23761V1.51046L35.2609 0.899643L35.5832 0.576681L36.1927 1.1875H37.916L38.5255 0.576681L38.8478 0.899643L38.2383 1.51046V3.23761L38.8478 3.84843L38.5255 4.17139L37.916 3.56057H36.1927L35.5832 4.17139L35.2609 3.84843L35.8704 3.23761ZM35.8704 24.8246V23.0974L35.2609 22.4866L35.5832 22.1636L36.1927 22.7745H37.916L38.5255 22.1636L38.8478 22.4866L38.2383 23.0974V24.8246L38.8478 25.4354L38.5255 25.7584L37.916 25.1475H36.1927L35.5832 25.7584L35.2609 25.4354L35.8704 24.8246ZM39.4619 3.23761V1.51046L38.8524 0.899643L39.1747 0.576681L39.7842 1.1875H41.5076L42.117 0.576681L42.4393 0.899643L41.8298 1.51046V3.23761L42.4393 3.84843L42.117 4.17139L41.5076 3.56057H39.7842L39.1747 4.17139L38.8524 3.84843L39.4619 3.23761ZM39.4619 24.8246V23.0974L38.8524 22.4866L39.1747 22.1636L39.7842 22.7745H41.5076L42.117 22.1636L42.4393 22.4866L41.8298 23.0974V24.8246L42.4393 25.4354L42.117 25.7584L41.5076 25.1475H39.7842L39.1747 25.7584L38.8524 25.4354L39.4619 24.8246Z" fill="white"/>
<path d="M49.3351 14.0311V12.3039L48.7256 11.6931L49.0479 11.3701L48.7256 11.0472L49.3351 10.4364V8.70922L48.7256 8.0984L49.0479 7.77543L48.7256 7.45247L49.3351 6.84165V5.11451L48.7256 4.50369L49.0479 4.18073L48.7256 3.85777L49.3351 3.24695V1.51044L48.7256 0.899622L49.0479 0.57666L49.6574 1.18748H51.3807L51.9902 0.57666L52.3125 0.899622L51.703 1.51044V3.23759L52.3125 3.8484L51.9902 4.17137L52.3125 4.49433L51.703 5.10515V6.83229L52.3125 7.44311L51.9902 7.76607L52.3125 8.08904L51.703 8.69986V10.427L52.3125 11.0378L51.9902 11.3608L52.3125 11.6837L51.703 12.2946V14.0217L52.3125 14.6325L51.9902 14.9555L52.3125 15.2784L51.703 15.8893V17.6164L52.3125 18.2272L51.9902 18.5502L52.3125 18.8732L51.703 19.484V21.2111L52.3125 21.8219L51.9902 22.1449L52.3125 22.4679L51.703 23.0787V24.8058L52.3125 25.4166L51.9902 25.7396L51.3807 25.1288H49.6574L49.0479 25.7396L48.7256 25.4166L49.3351 24.8058V23.0787L48.7256 22.4679L49.0479 22.1449L48.7256 21.8219L49.3351 21.2111V19.484L48.7256 18.8732L49.0479 18.5502L48.7256 18.2272L49.3351 17.6164V15.8893L48.7256 15.2784L49.0479 14.9555L48.7256 14.6325L49.3351 14.0217V14.0311ZM51.9926 4.17371L51.3831 3.56289H49.6597L49.0502 4.17371L49.6597 4.78453H51.3831L51.9926 4.17371ZM51.9926 7.77075L51.3831 7.15993H49.6597L49.0502 7.77075L49.6597 8.38157H51.3831L51.9926 7.77075ZM49.0479 11.3678L49.6574 11.9786H51.3807L51.9902 11.3678L51.3807 10.757H49.6574L49.0479 11.3678ZM49.0479 14.9648L49.6574 15.5757H51.3807L51.9902 14.9648L51.3807 14.354H49.6574L49.0479 14.9648ZM49.0479 18.5619L49.6574 19.1727H51.3807L51.9902 18.5619L51.3807 17.9511H49.6574L49.0479 18.5619ZM49.0479 22.1589L49.6574 22.7698H51.3807L51.9902 22.1589L51.3807 21.5481H49.6574L49.0479 22.1589ZM52.9243 17.6258V15.8986L52.3148 15.2878L52.6371 14.9648L53.2466 15.5757H54.9699L55.5794 14.9648L55.9017 15.2878L55.2922 15.8986V17.6258L55.9017 18.2366L55.5794 18.5596L54.9699 17.9487H53.2466L52.6371 18.5596L52.3148 18.2366L52.9243 17.6258ZM56.5135 14.0287V12.3016L55.904 11.6908L56.2263 11.3678L56.8357 11.9786H58.5591L59.1686 11.3678L59.4908 11.6908L58.8814 12.3016V14.0287L59.4908 14.6395L59.1686 14.9625L58.5591 14.3517H56.8357L56.2263 14.9625L55.904 14.6395L56.5135 14.0287ZM60.1027 14.0287V12.3016L59.4932 11.6908L59.8154 11.3678L59.4932 11.0448L60.1027 10.434V8.70688L59.4932 8.09606L59.8154 7.77309L60.4249 8.38391H62.1483L62.7578 7.77309L63.08 8.09606L62.4705 8.70688V10.434L63.08 11.0448L62.7578 11.3678L63.08 11.6908L62.4705 12.3016V14.0287L63.08 14.6395L62.7578 14.9625L63.08 15.2855L62.4705 15.8963V17.6234L63.08 18.2343L62.7578 18.5572L63.08 18.8802L62.4705 19.491V21.2181L63.08 21.829L62.7578 22.1519L63.08 22.4749L62.4705 23.0857V24.8128L63.08 25.4237L62.7578 25.7466L62.1483 25.1358H60.4249L59.8154 25.7466L59.4932 25.4237L60.1027 24.8128V23.0857L59.4932 22.4749L59.8154 22.1519L59.4932 21.829L60.1027 21.2181V19.491L59.4932 18.8802L59.8154 18.5572L59.4932 18.2343L60.1027 17.6234V15.8963L59.4932 15.2855L59.8154 14.9625L59.4932 14.6395L60.1027 14.0287ZM59.8154 11.3655L60.4249 11.9763H62.1483L62.7578 11.3655L62.1483 10.7546H60.4249L59.8154 11.3655ZM59.8154 14.9625L60.4249 15.5733H62.1483L62.7578 14.9625L62.1483 14.3517H60.4249L59.8154 14.9625ZM59.8154 18.5596L60.4249 19.1704H62.1483L62.7578 18.5596L62.1483 17.9487H60.4249L59.8154 18.5596ZM59.8154 22.1566L60.4249 22.7674H62.1483L62.7578 22.1566L62.1483 21.5458H60.4249L59.8154 22.1566Z" fill="white"/>
<path d="M70.8749 17.6281V15.901L70.2654 15.2902L70.5877 14.9672L70.2654 14.6442L70.8749 14.0334V12.3063L70.2654 11.6955L70.5877 11.3725L70.2654 11.0495L70.8749 10.4387V8.71158L70.2654 8.10076L70.5877 7.77779L71.1971 8.38861H72.9205L73.53 7.77779L73.8523 8.10076L73.2428 8.71158V10.4387L73.8523 11.0495L73.53 11.3725L73.8523 11.6955L73.2428 12.3063V14.0334L73.8523 14.6442L73.53 14.9672L73.8523 15.2902L73.2428 15.901V17.6281L73.8523 18.239L73.53 18.5619L73.8523 18.8849L73.2428 19.4957V21.2228L73.8523 21.8337L73.53 22.1566L73.8523 22.4796L73.2428 23.0904V24.8175L73.8523 25.4284L73.53 25.7513L72.9205 25.1405H71.1971L70.5877 25.7513L70.2654 25.4284L70.8749 24.8175V23.0904L70.2654 22.4796L70.5877 22.1566L70.2654 21.8337L70.8749 21.2228V19.4957L70.2654 18.8849L70.5877 18.5619L70.2654 18.239L70.8749 17.6281ZM73.5323 11.3678L72.9229 10.757H71.1995L70.59 11.3678L71.1995 11.9786H72.9229L73.5323 11.3678ZM70.5877 14.9649L71.1971 15.5757H72.9205L73.53 14.9649L72.9205 14.354H71.1971L70.5877 14.9649ZM70.5877 18.5619L71.1971 19.1727H72.9205L73.53 18.5619L72.9205 17.9511H71.1971L70.5877 18.5619ZM70.5877 22.159L71.1971 22.7698H72.9205L73.53 22.159L72.9205 21.5481H71.1971L70.5877 22.159ZM74.4641 10.4294V8.70221L73.8546 8.09139L74.1769 7.76843L74.7863 8.37925H76.5097L77.1192 7.76843L77.4414 8.09139L76.832 8.70221V10.4294L77.4414 11.0402L77.1192 11.3631L76.5097 10.7523H74.7863L74.1769 11.3631L73.8546 11.0402L74.4641 10.4294ZM74.4641 17.6258V15.8986L73.8546 15.2878L74.1769 14.9649L74.7863 15.5757H76.5097L77.1192 14.9649L77.4414 15.2878L76.832 15.8986V17.6258L77.4414 18.2366L77.1192 18.5596L76.5097 17.9488H74.7863L74.1769 18.5596L73.8546 18.2366L74.4641 17.6258ZM74.4641 24.8222V23.0951L73.8546 22.4843L74.1769 22.1613L74.7863 22.7721H76.5097L77.1192 22.1613L77.4414 22.4843L76.832 23.0951V24.8222L77.4414 25.433L77.1192 25.756L76.5097 25.1452H74.7863L74.1769 25.756L73.8546 25.433L74.4641 24.8222ZM78.0533 10.4317V8.70455L77.4438 8.09374L77.766 7.77077L78.3755 8.38159H80.0989L80.7084 7.77077L81.0306 8.09374L80.4211 8.70455V10.4317L81.0306 11.0425L80.7084 11.3655L80.0989 10.7547H78.3755L77.766 11.3655L77.4438 11.0425L78.0533 10.4317ZM78.0533 17.6281V15.901L77.4438 15.2902L77.766 14.9672L78.3755 15.578H80.0989L80.7084 14.9672L81.0306 15.2902L80.4211 15.901V17.6281L81.0306 18.239L80.7084 18.5619L80.0989 17.9511H78.3755L77.766 18.5619L77.4438 18.239L78.0533 17.6281ZM78.0533 24.8246V23.0974L77.4438 22.4866L77.766 22.1636L78.3755 22.7745H80.0989L80.7084 22.1636L81.0306 22.4866L80.4211 23.0974V24.8246L81.0306 25.4354L80.7084 25.7583L80.0989 25.1475H78.3755L77.766 25.7583L77.4438 25.4354L78.0533 24.8246ZM81.6425 17.6281V15.901L81.033 15.2902L81.3552 14.9672L81.033 14.6442L81.6425 14.0334V12.3063L81.033 11.6955L81.3552 11.3725L81.033 11.0495L81.6425 10.4387V8.71158L81.033 8.10076L81.3552 7.77779L81.9647 8.38861H83.6881L84.2976 7.77779L84.6198 8.10076L84.0103 8.71158V10.4387L84.6198 11.0495L84.2976 11.3725L84.6198 11.6955L84.0103 12.3063V14.0334L84.6198 14.6442L84.2976 14.9672L84.6198 15.2902L84.0103 15.901V17.6281L84.6198 18.239L84.2976 18.5619L83.6881 17.9511H81.9647L81.3552 18.5619L81.033 18.239L81.6425 17.6281ZM81.6425 24.8246V23.0974L81.033 22.4866L81.3552 22.1636L81.9647 22.7745H83.6881L84.2976 22.1636L84.6198 22.4866L84.0103 23.0974V24.8246L84.6198 25.4354L84.2976 25.7583L83.6881 25.1475H81.9647L81.3552 25.7583L81.033 25.4354L81.6425 24.8246ZM84.2999 11.3678L83.6904 10.757H81.967L81.3576 11.3678L81.967 11.9786H83.6904L84.2999 11.3678ZM81.3552 14.9649L81.9647 15.5757H83.6881L84.2976 14.9649L83.6881 14.354H81.9647L81.3552 14.9649Z" fill="white"/>
<path d="M91.8753 17.6281V15.901L91.2658 15.2902L91.588 14.9672L91.2658 14.6442L91.8753 14.0334V12.3063L91.2658 11.6955L91.588 11.3725L91.2658 11.0495L91.8753 10.4387V8.71158L91.2658 8.10076L91.588 7.77779L92.1975 8.38861H93.9209L94.5304 7.77779L94.8526 8.10076L94.2431 8.71158V10.4387L94.8526 11.0495L94.5304 11.3725L94.8526 11.6955L94.2431 12.3063V14.0334L94.8526 14.6442L94.5304 14.9672L94.8526 15.2902L94.2431 15.901V17.6281L94.8526 18.239L94.5304 18.5619L94.8526 18.8849L94.2431 19.4957V21.2228L94.8526 21.8337L94.5304 22.1566L94.8526 22.4796L94.2431 23.0904V24.8175L94.8526 25.4284L94.5304 25.7513L93.9209 25.1405H92.1975L91.588 25.7513L91.2658 25.4284L91.8753 24.8175V23.0904L91.2658 22.4796L91.588 22.1566L91.2658 21.8337L91.8753 21.2228V19.4957L91.2658 18.8849L91.588 18.5619L91.2658 18.239L91.8753 17.6281ZM94.5327 11.3678L93.9232 10.757H92.1999L91.5904 11.3678L92.1999 11.9786H93.9232L94.5327 11.3678ZM91.588 14.9649L92.1975 15.5757H93.9209L94.5304 14.9649L93.9209 14.354H92.1975L91.588 14.9649ZM91.588 18.5619L92.1975 19.1727H93.9209L94.5304 18.5619L93.9209 17.9511H92.1975L91.588 18.5619ZM91.588 22.159L92.1975 22.7698H93.9209L94.5304 22.159L93.9209 21.5481H92.1975L91.588 22.159ZM95.4644 10.4294V8.70221L94.855 8.09139L95.1772 7.76843L95.7867 8.37925H97.5101L98.1196 7.76843L98.4418 8.09139L97.8323 8.70221V10.4294L98.4418 11.0402L98.1196 11.3631L97.5101 10.7523H95.7867L95.1772 11.3631L94.855 11.0402L95.4644 10.4294ZM95.4644 17.6258V15.8986L94.855 15.2878L95.1772 14.9649L95.7867 15.5757H97.5101L98.1196 14.9649L98.4418 15.2878L97.8323 15.8986V17.6258L98.4418 18.2366L98.1196 18.5596L97.5101 17.9488H95.7867L95.1772 18.5596L94.855 18.2366L95.4644 17.6258ZM95.4644 24.8222V23.0951L94.855 22.4843L95.1772 22.1613L95.7867 22.7721H97.5101L98.1196 22.1613L98.4418 22.4843L97.8323 23.0951V24.8222L98.4418 25.433L98.1196 25.756L97.5101 25.1452H95.7867L95.1772 25.756L94.855 25.433L95.4644 24.8222ZM99.0536 10.4317V8.70455L98.4441 8.09374L98.7664 7.77077L99.3759 8.38159H101.099L101.709 7.77077L102.031 8.09374L101.422 8.70455V10.4317L102.031 11.0425L101.709 11.3655L101.099 10.7547H99.3759L98.7664 11.3655L98.4441 11.0425L99.0536 10.4317ZM99.0536 17.6281V15.901L98.4441 15.2902L98.7664 14.9672L99.3759 15.578H101.099L101.709 14.9672L102.031 15.2902L101.422 15.901V17.6281L102.031 18.239L101.709 18.5619L101.099 17.9511H99.3759L98.7664 18.5619L98.4441 18.239L99.0536 17.6281ZM99.0536 24.8246V23.0974L98.4441 22.4866L98.7664 22.1636L99.3759 22.7745H101.099L101.709 22.1636L102.031 22.4866L101.422 23.0974V24.8246L102.031 25.4354L101.709 25.7583L101.099 25.1475H99.3759L98.7664 25.7583L98.4441 25.4354L99.0536 24.8246ZM102.643 17.6281V15.901L102.033 15.2902L102.356 14.9672L102.033 14.6442L102.643 14.0334V12.3063L102.033 11.6955L102.356 11.3725L102.033 11.0495L102.643 10.4387V8.71158L102.033 8.10076L102.356 7.77779L102.965 8.38861H104.688L105.298 7.77779L105.62 8.10076L105.011 8.71158V10.4387L105.62 11.0495L105.298 11.3725L105.62 11.6955L105.011 12.3063V14.0334L105.62 14.6442L105.298 14.9672L105.62 15.2902L105.011 15.901V17.6281L105.62 18.239L105.298 18.5619L104.688 17.9511H102.965L102.356 18.5619L102.033 18.239L102.643 17.6281ZM102.643 24.8246V23.0974L102.033 22.4866L102.356 22.1636L102.965 22.7745H104.688L105.298 22.1636L105.62 22.4866L105.011 23.0974V24.8246L105.62 25.4354L105.298 25.7583L104.688 25.1475H102.965L102.356 25.7583L102.033 25.4354L102.643 24.8246ZM105.3 11.3678L104.691 10.757H102.967L102.358 11.3678L102.967 11.9786H104.691L105.3 11.3678ZM102.356 14.9649L102.965 15.5757H104.688L105.298 14.9649L104.688 14.354H102.965L102.356 14.9649Z" fill="white"/>
<path d="M112.878 14.0311V12.3039L112.268 11.6931L112.591 11.3701L112.268 11.0472L112.878 10.4364V8.70921L112.268 8.09839L112.591 7.77543L113.2 8.38625H114.924L115.533 7.77543L115.855 8.09839L115.246 8.70921V10.4364L115.855 11.0472L115.533 11.3701L115.855 11.6931L115.246 12.3039V14.0311L115.855 14.6419L115.533 14.9648L115.855 15.2878L115.246 15.8986V17.6258L115.855 18.2366L115.533 18.5596L115.855 18.8825L115.246 19.4933V21.2205L115.855 21.8313L115.533 22.1543L115.855 22.4772L115.246 23.088V24.8152L115.855 25.426L115.533 25.749L114.924 25.1381H113.2L112.591 25.749L112.268 25.426L112.878 24.8152V23.088L112.268 22.4772L112.591 22.1543L112.268 21.8313L112.878 21.2205V19.4933L112.268 18.8825L112.591 18.5596L112.268 18.2366L112.878 17.6258V15.8986L112.268 15.2878L112.591 14.9648L112.268 14.6419L112.878 14.0311ZM112.591 11.3678L113.2 11.9786H114.924L115.533 11.3678L114.924 10.757H113.2L112.591 11.3678ZM112.591 14.9648L113.2 15.5757H114.924L115.533 14.9648L114.924 14.354H113.2L112.591 14.9648ZM112.591 18.5619L113.2 19.1727H114.924L115.533 18.5619L114.924 17.9511H113.2L112.591 18.5619ZM112.591 22.1589L113.2 22.7698H114.924L115.533 22.1589L114.924 21.5481H113.2L112.591 22.1589ZM116.467 14.0287V12.3016L115.858 11.6908L116.18 11.3678L116.789 11.9786H118.513L119.122 11.3678L119.444 11.6908L118.835 12.3016V14.0287L119.444 14.6395L119.122 14.9625L118.513 14.3517H116.789L116.18 14.9625L115.858 14.6395L116.467 14.0287ZM120.056 10.4317V8.70453L119.447 8.09371L119.769 7.77075L120.379 8.38157H122.102L122.711 7.77075L123.034 8.09371L122.424 8.70453V10.4317L123.034 11.0425L122.711 11.3655L122.102 10.7546H120.379L119.769 11.3655L119.447 11.0425L120.056 10.4317Z" fill="white"/>
<path d="M127.06 14.0312V12.304L126.45 11.6932L126.772 11.3702L127.382 11.9811H129.105L129.715 11.3702L130.037 11.6932L129.427 12.304V14.0312L130.037 14.642L129.715 14.9649L129.105 14.3541H127.382L126.772 14.9649L126.45 14.642L127.06 14.0312ZM127.06 24.8246V23.0975L126.45 22.4867L126.772 22.1637L127.382 22.7745H129.105L129.715 22.1637L130.037 22.4867L129.427 23.0975V24.8246L130.037 25.4355L129.715 25.7584L129.105 25.1476H127.382L126.772 25.7584L126.45 25.4355L127.06 24.8246ZM130.649 10.4341V8.70697L130.039 8.09616L130.362 7.77319L130.971 8.38401H132.694L133.304 7.77319L133.626 8.09616L133.017 8.70697V10.4341L133.626 11.0449L133.304 11.3679L132.694 10.7571H130.971L130.362 11.3679L130.039 11.0449L130.649 10.4341ZM130.649 17.6306V15.9034L130.039 15.2926L130.362 14.9696L130.971 15.5804H132.694L133.304 14.9696L133.626 15.2926L133.017 15.9034V17.6306L133.626 18.2414L133.304 18.5643L132.694 17.9535H130.971L130.362 18.5643L130.039 18.2414L130.649 17.6306ZM130.649 24.827V23.0998L130.039 22.489L130.362 22.1661L130.971 22.7769H132.694L133.304 22.1661L133.626 22.489L133.017 23.0998V24.827L133.626 25.4378L133.304 25.7608L132.694 25.1499H130.971L130.362 25.7608L130.039 25.4378L130.649 24.827ZM134.238 10.4365V8.70931L133.628 8.0985L133.951 7.77553L134.56 8.38635H136.284L136.893 7.77553L137.215 8.0985L136.606 8.70931V10.4365L137.215 11.0473L136.893 11.3702L136.284 10.7594H134.56L133.951 11.3702L133.628 11.0473L134.238 10.4365ZM134.238 21.2299V19.5028L133.628 18.892L133.951 18.569L134.56 19.1798H136.284L136.893 18.569L137.215 18.892L136.606 19.5028V21.2299L137.215 21.8408L136.893 22.1637L136.284 21.5529H134.56L133.951 22.1637L133.628 21.8408L134.238 21.2299Z" fill="white"/>
<path d="M151.651 10.4316V8.70449L151.042 8.09367L151.364 7.77071L151.974 8.38153H153.697L154.307 7.77071L154.629 8.09367L154.019 8.70449V10.4316L154.629 11.0425L154.307 11.3654L153.697 10.7546H151.974L151.364 11.3654L151.042 11.0425L151.651 10.4316ZM155.241 14.0287V12.3015L154.631 11.6907L154.953 11.3678L154.631 11.0448L155.241 10.434V8.70683L154.631 8.09601L154.953 7.77305L154.631 7.45009L155.241 6.83927V5.11213L154.631 4.50131L154.953 4.17834L155.563 4.78916H157.286L157.896 4.17834L158.218 4.50131L157.608 5.11213V6.83927L158.218 7.45009L157.896 7.77305L158.218 8.09601L157.608 8.70683V10.434L158.218 11.0448L157.896 11.3678L158.218 11.6907L157.608 12.3015V14.0287L158.218 14.6395L157.896 14.9625L158.218 15.2854L157.608 15.8962V17.6234L158.218 18.2342L157.896 18.5572L158.218 18.8801L157.608 19.491V21.2181L158.218 21.8289L157.896 22.1519L158.218 22.4748L157.608 23.0857V24.8128L158.218 25.4236L157.896 25.7466L157.286 25.1358H155.563L154.953 25.7466L154.631 25.4236L155.241 24.8128V23.0857L154.631 22.4748L154.953 22.1519L154.631 21.8289L155.241 21.2181V19.491L154.631 18.8801L154.953 18.5572L154.631 18.2342L155.241 17.6234V15.8962L154.631 15.2854L154.953 14.9625L154.631 14.6395L155.241 14.0287ZM157.898 7.76837L157.289 7.15755H155.565L154.956 7.76837L155.565 8.37919H157.289L157.898 7.76837ZM154.953 11.3654L155.563 11.9762H157.286L157.896 11.3654L157.286 10.7546H155.563L154.953 11.3654ZM154.953 14.9625L155.563 15.5733H157.286L157.896 14.9625L157.286 14.3516H155.563L154.953 14.9625ZM154.953 18.5595L155.563 19.1703H157.286L157.896 18.5595L157.286 17.9487H155.563L154.953 18.5595ZM154.953 22.1566L155.563 22.7674H157.286L157.896 22.1566L157.286 21.5457H155.563L154.953 22.1566ZM158.83 10.427V8.69981L158.22 8.08899L158.543 7.76603L159.152 8.37685H160.875L161.485 7.76603L161.807 8.08899L161.198 8.69981V10.427L161.807 11.0378L161.485 11.3607L160.875 10.7499H159.152L158.543 11.3607L158.22 11.0378L158.83 10.427ZM158.83 24.8175V23.0903L158.22 22.4795L158.543 22.1566L159.152 22.7674H160.875L161.485 22.1566L161.807 22.4795L161.198 23.0903V24.8175L161.807 25.4283L161.485 25.7513L160.875 25.1404H159.152L158.543 25.7513L158.22 25.4283L158.83 24.8175ZM162.419 10.427V8.69981L161.81 8.08899L162.132 7.76603L162.741 8.37685H164.465L165.074 7.76603L165.396 8.08899L164.787 8.69981V10.427L165.396 11.0378L165.074 11.3607L164.465 10.7499H162.741L162.132 11.3607L161.81 11.0378L162.419 10.427ZM162.419 24.8175V23.0903L161.81 22.4795L162.132 22.1566L162.741 22.7674H164.465L165.074 22.1566L165.396 22.4795L164.787 23.0903V24.8175L165.396 25.4283L165.074 25.7513L164.465 25.1404H162.741L162.132 25.7513L161.81 25.4283L162.419 24.8175Z" fill="white"/>
<path d="M171.755 17.6281V15.901L171.146 15.2902L171.468 14.9672L171.146 14.6442L171.755 14.0334V12.3063L171.146 11.6955L171.468 11.3725L171.146 11.0495L171.755 10.4387V8.71158L171.146 8.10076L171.468 7.77779L172.077 8.38861H173.801L174.41 7.77779L174.732 8.10076L174.123 8.71158V10.4387L174.732 11.0495L174.41 11.3725L174.732 11.6955L174.123 12.3063V14.0334L174.732 14.6442L174.41 14.9672L174.732 15.2902L174.123 15.901V17.6281L174.732 18.239L174.41 18.5619L174.732 18.8849L174.123 19.4957V21.2228L174.732 21.8337L174.41 22.1566L174.732 22.4796L174.123 23.0904V24.8175L174.732 25.4284L174.41 25.7513L173.801 25.1405H172.077L171.468 25.7513L171.146 25.4284L171.755 24.8175V23.0904L171.146 22.4796L171.468 22.1566L171.146 21.8337L171.755 21.2228V19.4957L171.146 18.8849L171.468 18.5619L171.146 18.239L171.755 17.6281ZM174.413 11.3678L173.803 10.757H172.08L171.47 11.3678L172.08 11.9786H173.803L174.413 11.3678ZM171.468 14.9649L172.077 15.5757H173.801L174.41 14.9649L173.801 14.354H172.077L171.468 14.9649ZM171.468 18.5619L172.077 19.1727H173.801L174.41 18.5619L173.801 17.9511H172.077L171.468 18.5619ZM171.468 22.159L172.077 22.7698H173.801L174.41 22.159L173.801 21.5481H172.077L171.468 22.159ZM175.344 10.4294V8.70221L174.735 8.09139L175.057 7.76843L175.667 8.37925H177.39L177.999 7.76843L178.322 8.09139L177.712 8.70221V10.4294L178.322 11.0402L177.999 11.3631L177.39 10.7523H175.667L175.057 11.3631L174.735 11.0402L175.344 10.4294ZM175.344 24.8199V23.0927L174.735 22.4819L175.057 22.159L175.667 22.7698H177.39L177.999 22.159L178.322 22.4819L177.712 23.0927V24.8199L178.322 25.4307L177.999 25.7537L177.39 25.1429H175.667L175.057 25.7537L174.735 25.4307L175.344 24.8199ZM178.933 10.4294V8.70221L178.324 8.09139L178.646 7.76843L179.256 8.37925H180.979L181.589 7.76843L181.911 8.09139L181.301 8.70221V10.4294L181.911 11.0402L181.589 11.3631L180.979 10.7523H179.256L178.646 11.3631L178.324 11.0402L178.933 10.4294ZM178.933 24.8199V23.0927L178.324 22.4819L178.646 22.159L179.256 22.7698H180.979L181.589 22.159L181.911 22.4819L181.301 23.0927V24.8199L181.911 25.4307L181.589 25.7537L180.979 25.1429H179.256L178.646 25.7537L178.324 25.4307L178.933 24.8199ZM182.523 17.6235V15.8963L181.913 15.2855L182.235 14.9625L181.913 14.6396L182.523 14.0287V12.3016L181.913 11.6908L182.235 11.3678L181.913 11.0449L182.523 10.434V8.70689L181.913 8.09608L182.235 7.77311L182.845 8.38393H184.568L185.178 7.77311L185.5 8.09608L184.891 8.70689V10.434L185.5 11.0449L185.178 11.3678L185.5 11.6908L184.891 12.3016V14.0287L185.5 14.6396L185.178 14.9625L185.5 15.2855L184.891 15.8963V17.6235L185.5 18.2343L185.178 18.5572L185.5 18.8802L184.891 19.491V21.2182L185.5 21.829L185.178 22.1519L185.5 22.4749L184.891 23.0857V24.8129L185.5 25.4237L185.178 25.7466L184.568 25.1358H182.845L182.235 25.7466L181.913 25.4237L182.523 24.8129V23.0857L181.913 22.4749L182.235 22.1519L181.913 21.829L182.523 21.2182V19.491L181.913 18.8802L182.235 18.5572L181.913 18.2343L182.523 17.6235ZM185.18 11.3631L184.571 10.7523H182.847L182.238 11.3631L182.847 11.974H184.571L185.18 11.3631ZM182.235 14.9602L182.845 15.571H184.568L185.178 14.9602L184.568 14.3494H182.845L182.235 14.9602ZM182.235 18.5572L182.845 19.1681H184.568L185.178 18.5572L184.568 17.9464H182.845L182.235 18.5572ZM182.235 22.1543L182.845 22.7651H184.568L185.178 22.1543L184.568 21.5435H182.845L182.235 22.1543Z" fill="white"/>
<path d="M1.59215 57.1199V52.6179L0 51.0258L0.841828 50.184L2.43398 51.7761H6.93593L8.52809 50.184L9.36991 51.0258L7.77776 52.6179V57.1199L9.36991 58.7121L8.52809 59.5539L6.93593 57.9617H2.44008L0.847928 59.5539L0.0061002 58.7121L1.59825 57.1199H1.59215ZM1.59215 104.012V99.5102L0 97.9181L0.841828 97.0762L0 96.2344L1.59215 94.6423V90.1403L0 88.5482L0.841828 87.7063L0 86.8645L1.59215 85.2724V80.7704L0 79.1782L0.841828 78.3364L2.43398 79.9286H6.93593L8.52809 78.3364L9.36991 79.1782L7.77776 80.7704V85.2724L9.36991 86.8645L8.52809 87.7063L9.36991 88.5482L7.77776 90.1403V94.6423L9.36991 96.2344L8.52809 97.0762L9.36991 97.9181L7.77776 99.5102V104.012L9.36991 105.604L8.52809 106.446L9.36991 107.288L7.77776 108.88V113.382L9.36991 114.974L8.52809 115.816L6.93593 114.224H2.44008L0.847928 115.816L0.0061002 114.974L1.59825 113.382V108.88L0.0061002 107.288L0.847928 106.446L0.0061002 105.604L1.59825 104.012H1.59215ZM8.53419 87.6941L6.94203 86.102H2.44008L0.847928 87.6941L2.44008 89.2863H6.94203L8.53419 87.6941ZM0.841828 97.0701L2.43398 98.6623H6.93593L8.52809 97.0701L6.93593 95.478H2.44008L0.847928 97.0701H0.841828ZM0.841828 106.446L2.43398 108.038H6.93593L8.52809 106.446L6.93593 104.854H2.44008L0.847928 106.446H0.841828ZM10.9682 57.1199V52.6179L9.37601 51.0258L10.2178 50.184L11.81 51.7761H16.3119L17.9041 50.184L18.7459 51.0258L17.1538 52.6179V57.1199L18.7459 58.7121L17.9041 59.5539L16.3119 57.9617H11.81L10.2178 59.5539L9.37601 58.7121L10.9682 57.1199ZM10.9682 85.254V80.7521L9.37601 79.1599L10.2178 78.3181L11.81 79.9103H16.3119L17.9041 78.3181L18.7459 79.1599L17.1538 80.7521V85.254L18.7459 86.8462L17.9041 87.688L16.3119 86.0959H11.81L10.2178 87.688L9.37601 86.8462L10.9682 85.254ZM10.9682 113.388V108.886L9.37601 107.294L10.2178 106.452L11.81 108.044H16.3119L17.9041 106.452L18.7459 107.294L17.1538 108.886V113.388L18.7459 114.98L17.9041 115.822L16.3119 114.23H11.81L10.2178 115.822L9.37601 114.98L10.9682 113.388ZM20.3442 57.1199V52.6179L18.752 51.0258L19.5939 50.184L21.186 51.7761H25.688L27.2801 50.184L28.1219 51.0258L26.5298 52.6179V57.1199L28.1219 58.7121L27.2801 59.5539L25.688 57.9617H21.186L19.5939 59.5539L18.752 58.7121L20.3442 57.1199ZM20.3442 85.254V80.7521L18.752 79.1599L19.5939 78.3181L21.186 79.9103H25.688L27.2801 78.3181L28.1219 79.1599L26.5298 80.7521V85.254L28.1219 86.8462L27.2801 87.688L25.688 86.0959H21.186L19.5939 87.688L18.752 86.8462L20.3442 85.254ZM20.3442 113.388V108.886L18.752 107.294L19.5939 106.452L21.186 108.044H25.688L27.2801 106.452L28.1219 107.294L26.5298 108.886V113.388L28.1219 114.98L27.2801 115.822L25.688 114.23H21.186L19.5939 115.822L18.752 114.98L20.3442 113.388ZM29.7202 57.1199V52.6179L28.128 51.0258L28.9699 50.184L30.562 51.7761H35.064L36.6561 50.184L37.498 51.0258L35.9058 52.6179V57.1199L37.498 58.7121L36.6561 59.5539L37.498 60.3957L35.9058 61.9879V66.4898L37.498 68.082L36.6561 68.9238L37.498 69.7656L35.9058 71.3578V75.8597L37.498 77.4519L36.6561 78.2937L37.498 79.1355L35.9058 80.7277V85.2296L37.498 86.8218L36.6561 87.6636L35.064 86.0715H30.562L28.9699 87.6636L28.128 86.8218L29.7202 85.2296V80.7277L28.128 79.1355L28.9699 78.2937L28.128 77.4519L29.7202 75.8597V71.3578L28.128 69.7656L28.9699 68.9238L28.128 68.082L29.7202 66.4898V61.9879L28.128 60.3957L28.9699 59.5539L28.128 58.7121L29.7202 57.1199ZM29.7202 113.388V108.886L28.128 107.294L28.9699 106.452L30.562 108.044H35.064L36.6561 106.452L37.498 107.294L35.9058 108.886V113.388L37.498 114.98L36.6561 115.822L35.064 114.23H30.562L28.9699 115.822L28.128 114.98L29.7202 113.388ZM28.9699 59.56L30.562 61.1521H35.064L36.6561 59.56L35.064 57.9678H30.562L28.9699 59.56ZM28.9699 68.936L30.562 70.5281H35.064L36.6561 68.936L35.064 67.3438H30.562L28.9699 68.936ZM36.6622 78.312L35.0701 76.7199H30.5681L28.976 78.312L30.5681 79.9042H35.0701L36.6622 78.312Z" fill="white"/>
<path d="M56.9271 113.388V108.886L55.335 107.294L56.1768 106.452L55.335 105.61L56.9271 104.018V99.5163L55.335 97.9242L56.1768 97.0823L55.335 96.2405L56.9271 94.6484V90.1464L55.335 88.5542L56.1768 87.7124L55.335 86.8706L56.9271 85.2784V80.7765L55.335 79.1843L56.1768 78.3425L55.335 77.5007L56.9271 75.9085V71.4066L55.335 69.8144L56.1768 68.9726L55.335 68.1308L56.9271 66.5386V62.0367L55.335 60.4445L56.1768 59.6027L55.335 58.7608L56.9271 57.1687V52.6667L55.335 51.0746L56.1768 50.2328L57.7689 51.8249H62.2709L63.863 50.2328L64.7049 51.0746L63.1127 52.6667V57.1687L64.7049 58.7608L63.863 59.6027L64.7049 60.4445L63.1127 62.0367V66.5386L64.7049 68.1308L63.863 68.9726L64.7049 69.8144L63.1127 71.4066V75.9085L64.7049 77.5007L63.863 78.3425L64.7049 79.1843L63.1127 80.7765V85.2784L64.7049 86.8706L63.863 87.7124L64.7049 88.5542L63.1127 90.1464V94.6484L64.7049 96.2405L63.863 97.0823L64.7049 97.9242L63.1127 99.5163V104.018L64.7049 105.61L63.863 106.452L64.7049 107.294L63.1127 108.886V113.388L64.7049 114.98L63.863 115.822L62.2709 114.23H57.7689L56.1768 115.822L55.335 114.98L56.9271 113.388ZM63.8691 59.56L62.277 57.9678H57.775L56.1829 59.56L57.775 61.1521H62.277L63.8691 59.56ZM63.8691 68.936L62.277 67.3438H57.775L56.1829 68.936L57.775 70.5281H62.277L63.8691 68.936ZM63.8691 78.312L62.277 76.7198H57.775L56.1829 78.312L57.775 79.9042H62.277L63.8691 78.312ZM63.8691 87.688L62.277 86.0959H57.775L56.1829 87.688L57.775 89.2802H62.277L63.8691 87.688ZM63.8691 97.064L62.277 95.4719H57.775L56.1829 97.064L57.775 98.6562H62.277L63.8691 97.064ZM56.1768 106.44L57.7689 108.032H62.2709L63.863 106.44L62.2709 104.848H57.7689L56.1768 106.44ZM66.3031 57.1138V52.6118L64.711 51.0197L65.5528 50.1779L67.145 51.77H71.6469L73.2391 50.1779L74.0809 51.0197L72.4887 52.6118V57.1138L74.0809 58.7059L73.2391 59.5478L71.6469 57.9556H67.145L65.5528 59.5478L64.711 58.7059L66.3031 57.1138ZM66.3031 113.382V108.88L64.711 107.288L65.5528 106.446L67.145 108.038H71.6469L73.2391 106.446L74.0809 107.288L72.4887 108.88V113.382L74.0809 114.974L73.2391 115.816L71.6469 114.224H67.145L65.5528 115.816L64.711 114.974L66.3031 113.382ZM75.6791 57.1138V52.6118L74.087 51.0197L74.9288 50.1779L76.521 51.77H81.0229L82.6151 50.1779L83.4569 51.0197L81.8647 52.6118V57.1138L83.4569 58.7059L82.6151 59.5478L81.0229 57.9556H76.521L74.9288 59.5478L74.087 58.7059L75.6791 57.1138ZM75.6791 113.382V108.88L74.087 107.288L74.9288 106.446L76.521 108.038H81.0229L82.6151 106.446L83.4569 107.288L81.8647 108.88V113.382L83.4569 114.974L82.6151 115.816L81.0229 114.224H76.521L74.9288 115.816L74.087 114.974L75.6791 113.382ZM85.0551 113.382V108.88L83.463 107.288L84.3048 106.446L83.463 105.604L85.0551 104.012V99.5102L83.463 97.9181L84.3048 97.0762L83.463 96.2344L85.0551 94.6423V90.1403L83.463 88.5482L84.3048 87.7063L83.463 86.8645L85.0551 85.2723V80.7704L83.463 79.1782L84.3048 78.3364L83.463 77.4946L85.0551 75.9024V71.4005L83.463 69.8083L84.3048 68.9665L83.463 68.1247L85.0551 66.5325V62.0306L83.463 60.4384L84.3048 59.5966L83.463 58.7547L85.0551 57.1626V52.6606L83.463 51.0685L84.3048 50.2267L85.897 51.8188H90.3989L91.9911 50.2267L92.8329 51.0685L91.2408 52.6606V57.1626L92.8329 58.7547L91.9911 59.5966L92.8329 60.4384L91.2408 62.0306V66.5325L92.8329 68.1247L91.9911 68.9665L92.8329 69.8083L91.2408 71.4005V75.9024L92.8329 77.4946L91.9911 78.3364L92.8329 79.1782L91.2408 80.7704V85.2723L92.8329 86.8645L91.9911 87.7063L92.8329 88.5482L91.2408 90.1403V94.6423L92.8329 96.2344L91.9911 97.0762L92.8329 97.9181L91.2408 99.5102V104.012L92.8329 105.604L91.9911 106.446L92.8329 107.288L91.2408 108.88V113.382L92.8329 114.974L91.9911 115.816L90.3989 114.224H85.897L84.3048 115.816L83.463 114.974L85.0551 113.382ZM91.9972 59.5539L90.405 57.9617H85.9031L84.3109 59.5539L85.9031 61.146H90.405L91.9972 59.5539ZM91.9972 68.9299L90.405 67.3377H85.9031L84.3109 68.9299L85.9031 70.522H90.405L91.9972 68.9299ZM91.9972 78.3059L90.405 76.7137H85.9031L84.3109 78.3059L85.9031 79.8981H90.405L91.9972 78.3059ZM91.9972 87.6819L90.405 86.0898H85.9031L84.3109 87.6819L85.9031 89.2741H90.405L91.9972 87.6819ZM91.9972 97.0579L90.405 95.4658H85.9031L84.3109 97.0579L85.9031 98.6501H90.405L91.9972 97.0579ZM84.3048 106.434L85.897 108.026H90.3989L91.9911 106.434L90.3989 104.842H85.897L84.3048 106.434Z" fill="white"/>
<path d="M112.256 57.1199V52.6179L110.664 51.0258L111.506 50.184L113.098 51.7761H117.6L119.192 50.184L120.034 51.0258L118.442 52.6179V57.1199L120.034 58.7121L119.192 59.5539L117.6 57.9617H113.098L111.506 59.5539L110.664 58.7121L112.256 57.1199ZM112.256 104.012V99.5102L110.664 97.9181L111.506 97.0762L110.664 96.2344L112.256 94.6423V90.1403L110.664 88.5482L111.506 87.7063L110.664 86.8645L112.256 85.2724V80.7704L110.664 79.1782L111.506 78.3364L113.098 79.9286H117.6L119.192 78.3364L120.034 79.1782L118.442 80.7704V85.2724L120.034 86.8645L119.192 87.7063L120.034 88.5482L118.442 90.1403V94.6423L120.034 96.2344L119.192 97.0762L120.034 97.9181L118.442 99.5102V104.012L120.034 105.604L119.192 106.446L120.034 107.288L118.442 108.88V113.382L120.034 114.974L119.192 115.816L117.6 114.224H113.098L111.506 115.816L110.664 114.974L112.256 113.382V108.88L110.664 107.288L111.506 106.446L110.664 105.604L112.256 104.012ZM119.198 87.6941L117.606 86.102H113.104L111.512 87.6941L113.104 89.2863H117.606L119.198 87.6941ZM111.506 97.0701L113.098 98.6623H117.6L119.192 97.0701L117.6 95.478H113.098L111.506 97.0701ZM111.506 106.446L113.098 108.038H117.6L119.192 106.446L117.6 104.854H113.098L111.506 106.446ZM121.632 57.1199V52.6179L120.04 51.0258L120.882 50.184L122.474 51.7761H126.976L128.568 50.184L129.41 51.0258L127.818 52.6179V57.1199L129.41 58.7121L128.568 59.5539L126.976 57.9617H122.474L120.882 59.5539L120.04 58.7121L121.632 57.1199ZM121.632 85.254V80.7521L120.04 79.1599L120.882 78.3181L122.474 79.9103H126.976L128.568 78.3181L129.41 79.1599L127.818 80.7521V85.254L129.41 86.8462L128.568 87.688L126.976 86.0959H122.474L120.882 87.688L120.04 86.8462L121.632 85.254ZM121.632 113.388V108.886L120.04 107.294L120.882 106.452L122.474 108.044H126.976L128.568 106.452L129.41 107.294L127.818 108.886V113.388L129.41 114.98L128.568 115.822L126.976 114.23H122.474L120.882 115.822L120.04 114.98L121.632 113.388ZM131.008 57.1199V52.6179L129.416 51.0258L130.258 50.184L131.85 51.7761H136.352L137.944 50.184L138.786 51.0258L137.194 52.6179V57.1199L138.786 58.7121L137.944 59.5539L136.352 57.9617H131.85L130.258 59.5539L129.416 58.7121L131.008 57.1199ZM131.008 85.254V80.7521L129.416 79.1599L130.258 78.3181L131.85 79.9103H136.352L137.944 78.3181L138.786 79.1599L137.194 80.7521V85.254L138.786 86.8462L137.944 87.688L136.352 86.0959H131.85L130.258 87.688L129.416 86.8462L131.008 85.254ZM131.008 113.388V108.886L129.416 107.294L130.258 106.452L131.85 108.044H136.352L137.944 106.452L138.786 107.294L137.194 108.886V113.388L138.786 114.98L137.944 115.822L136.352 114.23H131.85L130.258 115.822L129.416 114.98L131.008 113.388ZM140.384 57.1199V52.6179L138.792 51.0258L139.634 50.184L141.226 51.7761H145.728L147.32 50.184L148.162 51.0258L146.57 52.6179V57.1199L148.162 58.7121L147.32 59.5539L148.162 60.3957L146.57 61.9879V66.4898L148.162 68.082L147.32 68.9238L148.162 69.7656L146.57 71.3578V75.8597L148.162 77.4519L147.32 78.2937L148.162 79.1355L146.57 80.7277V85.2296L148.162 86.8218L147.32 87.6636L145.728 86.0715H141.226L139.634 87.6636L138.792 86.8218L140.384 85.2296V80.7277L138.792 79.1355L139.634 78.2937L138.792 77.4519L140.384 75.8597V71.3578L138.792 69.7656L139.634 68.9238L138.792 68.082L140.384 66.4898V61.9879L138.792 60.3957L139.634 59.5539L138.792 58.7121L140.384 57.1199ZM140.384 113.388V108.886L138.792 107.294L139.634 106.452L141.226 108.044H145.728L147.32 106.452L148.162 107.294L146.57 108.886V113.388L148.162 114.98L147.32 115.822L145.728 114.23H141.226L139.634 115.822L138.792 114.98L140.384 113.388ZM139.634 59.56L141.226 61.1521H145.728L147.32 59.56L145.728 57.9678H141.226L139.634 59.56ZM139.634 68.936L141.226 70.5281H145.728L147.32 68.936L145.728 67.3438H141.226L139.634 68.936ZM147.326 78.312L145.734 76.7199H141.232L139.64 78.312L141.232 79.9042H145.734L147.326 78.312Z" fill="white"/>
<path d="M165.712 57.1199V52.6179L164.12 51.0258L164.962 50.184L166.554 51.7761H171.056L172.648 50.184L173.49 51.0258L171.898 52.6179V57.1199L173.49 58.7121L172.648 59.5539L173.49 60.3957L171.898 61.9879V66.4898L173.49 68.082L172.648 68.9238L173.49 69.7656L171.898 71.3578V75.8597L173.49 77.4519L172.648 78.2937L173.49 79.1355L171.898 80.7277V85.2296L173.49 86.8218L172.648 87.6636L173.49 88.5055L171.898 90.0976V94.5996L173.49 96.1917L172.648 97.0335L171.056 95.4414H166.554L164.962 97.0335L164.12 96.1917L165.712 94.5996V90.0976L164.12 88.5055L164.962 87.6636L164.12 86.8218L165.712 85.2296V80.7277L164.12 79.1355L164.962 78.2937L164.12 77.4519L165.712 75.8597V71.3578L164.12 69.7656L164.962 68.9238L164.12 68.082L165.712 66.4898V61.9879L164.12 60.3957L164.962 59.5539L164.12 58.7121L165.712 57.1199ZM164.962 59.56L166.554 61.1521H171.056L172.648 59.56L171.056 57.9678H166.554L164.962 59.56ZM164.962 68.936L166.554 70.5281H171.056L172.648 68.936L171.056 67.3438H166.554L164.962 68.936ZM164.962 78.312L166.554 79.9042H171.056L172.648 78.312L171.056 76.7199H166.554L164.962 78.312ZM172.654 87.688L171.062 86.0959H166.56L164.968 87.688L166.56 89.2802H171.062L172.654 87.688ZM175.094 94.6301V90.1281L173.502 88.5359L174.344 87.6941L175.936 89.2863H180.438L182.03 87.6941L182.872 88.5359L181.28 90.1281V94.6301L182.872 96.2222L182.03 97.064L180.438 95.4719H175.936L174.344 97.064L173.502 96.2222L175.094 94.6301ZM184.47 94.6301V90.1281L182.878 88.5359L183.72 87.6941L185.312 89.2863H189.814L191.406 87.6941L192.248 88.5359L190.656 90.1281V94.6301L192.248 96.2222L191.406 97.064L189.814 95.4719H185.312L183.72 97.064L182.878 96.2222L184.47 94.6301ZM193.846 66.4959V61.994L192.254 60.4018L193.096 59.56L192.254 58.7182L193.846 57.126V52.624L192.254 51.0319L193.096 50.1901L194.688 51.7822H199.19L200.782 50.1901L201.624 51.0319L200.032 52.624V57.126L201.624 58.7182L200.782 59.56L201.624 60.4018L200.032 61.994V66.4959L201.624 68.0881L200.782 68.9299L201.624 69.7717L200.032 71.3639V75.8658L201.624 77.458L200.782 78.2998L201.624 79.1416L200.032 80.7338V85.2358L201.624 86.8279L200.782 87.6697L201.624 88.5116L200.032 90.1037V94.6057L201.624 96.1978L200.782 97.0396L201.624 97.8815L200.032 99.4736V103.976L201.624 105.568L200.782 106.41L201.624 107.251L200.032 108.844V113.345L201.624 114.938L200.782 115.779L199.19 114.187H194.688L193.096 115.779L192.254 114.938L193.846 113.345V108.844L192.254 107.251L193.096 106.41L192.254 105.568L193.846 103.976V99.4736L192.254 97.8815L193.096 97.0396L192.254 96.1978L193.846 94.6057V90.1037L192.254 88.5116L193.096 87.6697L192.254 86.8279L193.846 85.2358V80.7338L192.254 79.1416L193.096 78.2998L192.254 77.458L193.846 75.8658V71.3639L192.254 69.7717L193.096 68.9299L192.254 68.0881L193.846 66.4959ZM193.096 59.5539L194.688 61.146H199.19L200.782 59.5539L199.19 57.9617H194.688L193.096 59.5539ZM193.096 68.9299L194.688 70.5221H199.19L200.782 68.9299L199.19 67.3377H194.688L193.096 68.9299ZM193.096 78.3059L194.688 79.8981H199.19L200.782 78.3059L199.19 76.7138H194.688L193.096 78.3059ZM193.096 87.6819L194.688 89.2741H199.19L200.782 87.6819L199.19 86.0898H194.688L193.096 87.6819ZM193.096 97.0579L194.688 98.6501H199.19L200.782 97.0579L199.19 95.4658H194.688L193.096 97.0579ZM193.096 106.434L194.688 108.026H199.19L200.782 106.434L199.19 104.842H194.688L193.096 106.434ZM203.222 94.6179V90.1159L201.63 88.5238L202.472 87.6819L204.064 89.2741H208.566L210.158 87.6819L211 88.5238L209.408 90.1159V94.6179L211 96.21L210.158 97.0518L208.566 95.4597H204.064L202.472 97.0518L201.63 96.21L203.222 94.6179Z" fill="white"/>
</g>
<defs>
<clipPath id="clip0_13_748">
<rect width="210" height="117" fill="white" transform="translate(0.5)"/>
</clipPath>
</defs>
</svg>
