<svg width="211" height="117" viewBox="0 0 211 117" fill="none" xmlns="http://www.w3.org/2000/svg">
<g clip-path="url(#clip0_13_748)">
<path d="M25.1005 24.8244V23.0973L24.491 22.4865L24.8133 22.1635L24.491 21.8406L25.1005 21.2297V19.5026L24.491 18.8918L24.8133 18.5688L24.491 18.2459L25.1005 17.635V15.9079L24.491 15.2971L24.8133 14.9741L24.491 14.6511L25.1005 14.0403V12.3132L24.491 11.7024L24.8133 11.3794L24.491 11.0564L25.1005 10.4456V8.71848L24.491 8.10766L24.8133 7.78469L24.491 7.46173L25.1005 6.85091V5.12377L24.491 4.51295L24.8133 4.18999L24.491 3.86703L25.1005 3.25621V1.51034L24.491 0.897181L24.8133 0.574219L25.4251 1.18504H27.1485L27.758 0.574219L28.0802 0.897181L27.4707 1.508V3.23514L28.0802 3.84596L27.758 4.16893L28.0802 4.49189L27.4707 5.10271V6.82985L28.0802 7.44067L27.758 7.76363L28.0802 8.08659L27.4707 8.69741V10.4246L28.0802 11.0354L27.758 11.3583L28.0802 11.6813L27.4707 12.2921V14.0193L28.0802 14.6301L27.758 14.953L28.0802 15.276L27.4707 15.8868V17.614L28.0802 18.2248L27.758 18.5478L28.0802 18.8707L27.4707 19.4815V21.2087L28.0802 21.8195L27.758 22.1425L28.0802 22.4654L27.4707 23.0762V24.8034L28.0802 25.4142L27.758 25.7372L27.1485 25.1263H25.4251L24.8156 25.7372L24.4934 25.4142L25.1028 24.8034L25.1005 24.8244ZM27.758 4.17127L27.1485 3.56045H25.4251L24.8156 4.17127L25.4251 4.78208H27.1485L27.758 4.17127ZM27.758 7.76831L27.1485 7.15749H25.4251L24.8156 7.76831L25.4251 8.37913H27.1485L27.758 7.76831ZM27.758 11.3654L27.1485 10.7545H25.4251L24.8156 11.3654L25.4251 11.9762H27.1485L27.758 11.3654ZM27.758 14.9624L27.1485 14.3516H25.4251L24.8156 14.9624L25.4251 15.5732H27.1485L27.758 14.9624ZM27.758 18.5595L27.1485 17.9486H25.4251L24.8156 18.5595L25.4251 19.1703H27.1485L27.758 18.5595ZM24.8133 22.1612L25.4228 22.772H27.1461L27.7556 22.1612L27.1461 21.5504H25.4251L24.8156 22.1612H24.8133ZM28.692 3.23748V1.51034L28.0825 0.899521L28.4048 0.576559L29.0143 1.18738H30.7377L31.3471 0.576559L31.6694 0.899521L31.0599 1.51034V3.23748L31.6694 3.8483L31.3471 4.17127L30.7377 3.56045H29.0143L28.4048 4.17127L28.0825 3.8483L28.692 3.23748ZM28.692 24.8244V23.0973L28.0825 22.4865L28.4048 22.1635L29.0143 22.7743H30.7377L31.3471 22.1635L31.6694 22.4865L31.0599 23.0973V24.8244L31.6694 25.4353L31.3471 25.7582L30.7377 25.1474H29.0143L28.4048 25.7582L28.0825 25.4353L28.692 24.8244ZM32.2812 3.23748V1.51034L31.6717 0.899521L31.994 0.576559L32.6035 1.18738H34.3268L34.9363 0.576559L35.2586 0.899521L34.6491 1.51034V3.23748L35.2586 3.8483L34.9363 4.17127L34.3268 3.56045H32.6035L31.994 4.17127L31.6717 3.8483L32.2812 3.23748ZM32.2812 24.8244V23.0973L31.6717 22.4865L31.994 22.1635L32.6035 22.7743H34.3268L34.9363 22.1635L35.2586 22.4865L34.6491 23.0973V24.8244L35.2586 25.4353L34.9363 25.7582L34.3268 25.1474H32.6035L31.994 25.7582L31.6717 25.4353L32.2812 24.8244ZM35.8704 3.23748V1.51034L35.2609 0.899521L35.5832 0.576559L36.1927 1.18738H37.916L38.5255 0.576559L38.8478 0.899521L38.2383 1.51034V3.23748L38.8478 3.8483L38.5255 4.17127L37.916 3.56045H36.1927L35.5832 4.17127L35.2609 3.8483L35.8704 3.23748ZM35.8704 24.8244V23.0973L35.2609 22.4865L35.5832 22.1635L36.1927 22.7743H37.916L38.5255 22.1635L38.8478 22.4865L38.2383 23.0973V24.8244L38.8478 25.4353L38.5255 25.7582L37.916 25.1474H36.1927L35.5832 25.7582L35.2609 25.4353L35.8704 24.8244ZM39.4619 3.23748V1.51034L38.8524 0.899521L39.1747 0.576559L39.7842 1.18738H41.5076L42.117 0.576559L42.4393 0.899521L41.8298 1.51034V3.23748L42.4393 3.8483L42.117 4.17127L41.5076 3.56045H39.7842L39.1747 4.17127L38.8524 3.8483L39.4619 3.23748ZM39.4619 24.8244V23.0973L38.8524 22.4865L39.1747 22.1635L39.7842 22.7743H41.5076L42.117 22.1635L42.4393 22.4865L41.8298 23.0973V24.8244L42.4393 25.4353L42.117 25.7582L41.5076 25.1474H39.7842L39.1747 25.7582L38.8524 25.4353L39.4619 24.8244Z" fill="white"/>
<path d="M49.3351 14.0308V12.3037L48.7256 11.6929L49.0479 11.3699L48.7256 11.0469L49.3351 10.4361V8.70897L48.7256 8.09815L49.0479 7.77519L48.7256 7.45223L49.3351 6.84141V5.11426L48.7256 4.50345L49.0479 4.18048L48.7256 3.85752L49.3351 3.2467V1.5102L48.7256 0.899378L49.0479 0.576416L49.6574 1.18724H51.3807L51.9902 0.576416L52.3125 0.899378L51.703 1.5102V3.23734L52.3125 3.84816L51.9902 4.17112L52.3125 4.49408L51.703 5.1049V6.83205L52.3125 7.44287L51.9902 7.76583L52.3125 8.08879L51.703 8.69961V10.4268L52.3125 11.0376L51.9902 11.3605L52.3125 11.6835L51.703 12.2943V14.0215L52.3125 14.6323L51.9902 14.9552L52.3125 15.2782L51.703 15.889V17.6162L52.3125 18.227L51.9902 18.5499L52.3125 18.8729L51.703 19.4837V21.2109L52.3125 21.8217L51.9902 22.1447L52.3125 22.4676L51.703 23.0784V24.8056L52.3125 25.4164L51.9902 25.7394L51.3807 25.1285H49.6574L49.0479 25.7394L48.7256 25.4164L49.3351 24.8056V23.0784L48.7256 22.4676L49.0479 22.1447L48.7256 21.8217L49.3351 21.2109V19.4837L48.7256 18.8729L49.0479 18.5499L48.7256 18.227L49.3351 17.6162V15.889L48.7256 15.2782L49.0479 14.9552L48.7256 14.6323L49.3351 14.0215V14.0308ZM51.9926 4.17346L51.3831 3.56264H49.6597L49.0502 4.17346L49.6597 4.78428H51.3831L51.9926 4.17346ZM51.9926 7.77051L51.3831 7.15969H49.6597L49.0502 7.77051L49.6597 8.38133H51.3831L51.9926 7.77051ZM49.0479 11.3676L49.6574 11.9784H51.3807L51.9902 11.3676L51.3807 10.7567H49.6574L49.0479 11.3676ZM49.0479 14.9646L49.6574 15.5754H51.3807L51.9902 14.9646L51.3807 14.3538H49.6574L49.0479 14.9646ZM49.0479 18.5617L49.6574 19.1725H51.3807L51.9902 18.5617L51.3807 17.9508H49.6574L49.0479 18.5617ZM49.0479 22.1587L49.6574 22.7695H51.3807L51.9902 22.1587L51.3807 21.5479H49.6574L49.0479 22.1587ZM52.9243 17.6255V15.8984L52.3148 15.2876L52.6371 14.9646L53.2466 15.5754H54.9699L55.5794 14.9646L55.9017 15.2876L55.2922 15.8984V17.6255L55.9017 18.2363L55.5794 18.5593L54.9699 17.9485H53.2466L52.6371 18.5593L52.3148 18.2363L52.9243 17.6255ZM56.5135 14.0285V12.3013L55.904 11.6905L56.2263 11.3676L56.8357 11.9784H58.5591L59.1686 11.3676L59.4908 11.6905L58.8814 12.3013V14.0285L59.4908 14.6393L59.1686 14.9623L58.5591 14.3514H56.8357L56.2263 14.9623L55.904 14.6393L56.5135 14.0285ZM60.1027 14.0285V12.3013L59.4932 11.6905L59.8154 11.3676L59.4932 11.0446L60.1027 10.4338V8.70663L59.4932 8.09581L59.8154 7.77285L60.4249 8.38367H62.1483L62.7578 7.77285L63.08 8.09581L62.4705 8.70663V10.4338L63.08 11.0446L62.7578 11.3676L63.08 11.6905L62.4705 12.3013V14.0285L63.08 14.6393L62.7578 14.9623L63.08 15.2852L62.4705 15.896V17.6232L63.08 18.234L62.7578 18.557L63.08 18.8799L62.4705 19.4908V21.2179L63.08 21.8287L62.7578 22.1517L63.08 22.4746L62.4705 23.0855V24.8126L63.08 25.4234L62.7578 25.7464L62.1483 25.1356H60.4249L59.8154 25.7464L59.4932 25.4234L60.1027 24.8126V23.0855L59.4932 22.4746L59.8154 22.1517L59.4932 21.8287L60.1027 21.2179V19.4908L59.4932 18.8799L59.8154 18.557L59.4932 18.234L60.1027 17.6232V15.896L59.4932 15.2852L59.8154 14.9623L59.4932 14.6393L60.1027 14.0285ZM59.8154 11.3652L60.4249 11.976H62.1483L62.7578 11.3652L62.1483 10.7544H60.4249L59.8154 11.3652ZM59.8154 14.9623L60.4249 15.5731H62.1483L62.7578 14.9623L62.1483 14.3514H60.4249L59.8154 14.9623ZM59.8154 18.5593L60.4249 19.1701H62.1483L62.7578 18.5593L62.1483 17.9485H60.4249L59.8154 18.5593ZM59.8154 22.1564L60.4249 22.7672H62.1483L62.7578 22.1564L62.1483 21.5455H60.4249L59.8154 22.1564Z" fill="white"/>
<path d="M70.8749 17.628V15.9009L70.2654 15.29L70.5877 14.9671L70.2654 14.6441L70.8749 14.0333V12.3062L70.2654 11.6953L70.5877 11.3724L70.2654 11.0494L70.8749 10.4386V8.71145L70.2654 8.10063L70.5877 7.77767L71.1971 8.38849H72.9205L73.53 7.77767L73.8523 8.10063L73.2428 8.71145V10.4386L73.8523 11.0494L73.53 11.3724L73.8523 11.6953L73.2428 12.3062V14.0333L73.8523 14.6441L73.53 14.9671L73.8523 15.29L73.2428 15.9009V17.628L73.8523 18.2388L73.53 18.5618L73.8523 18.8848L73.2428 19.4956V21.2227L73.8523 21.8335L73.53 22.1565L73.8523 22.4795L73.2428 23.0903V24.8174L73.8523 25.4282L73.53 25.7512L72.9205 25.1404H71.1971L70.5877 25.7512L70.2654 25.4282L70.8749 24.8174V23.0903L70.2654 22.4795L70.5877 22.1565L70.2654 21.8335L70.8749 21.2227V19.4956L70.2654 18.8848L70.5877 18.5618L70.2654 18.2388L70.8749 17.628ZM73.5323 11.3677L72.9229 10.7569H71.1995L70.59 11.3677L71.1995 11.9785H72.9229L73.5323 11.3677ZM70.5877 14.9647L71.1971 15.5756H72.9205L73.53 14.9647L72.9205 14.3539H71.1971L70.5877 14.9647ZM70.5877 18.5618L71.1971 19.1726H72.9205L73.53 18.5618L72.9205 17.951H71.1971L70.5877 18.5618ZM70.5877 22.1588L71.1971 22.7697H72.9205L73.53 22.1588L72.9205 21.548H71.1971L70.5877 22.1588ZM74.4641 10.4292V8.70209L73.8546 8.09127L74.1769 7.76831L74.7863 8.37913H76.5097L77.1192 7.76831L77.4414 8.09127L76.832 8.70209V10.4292L77.4414 11.0401L77.1192 11.363L76.5097 10.7522H74.7863L74.1769 11.363L73.8546 11.0401L74.4641 10.4292ZM74.4641 17.6257V15.8985L73.8546 15.2877L74.1769 14.9647L74.7863 15.5756H76.5097L77.1192 14.9647L77.4414 15.2877L76.832 15.8985V17.6257L77.4414 18.2365L77.1192 18.5595L76.5097 17.9486H74.7863L74.1769 18.5595L73.8546 18.2365L74.4641 17.6257ZM74.4641 24.8221V23.095L73.8546 22.4841L74.1769 22.1612L74.7863 22.772H76.5097L77.1192 22.1612L77.4414 22.4841L76.832 23.095V24.8221L77.4414 25.4329L77.1192 25.7559L76.5097 25.1451H74.7863L74.1769 25.7559L73.8546 25.4329L74.4641 24.8221ZM78.0533 10.4316V8.70443L77.4438 8.09361L77.766 7.77065L78.3755 8.38147H80.0989L80.7084 7.77065L81.0306 8.09361L80.4211 8.70443V10.4316L81.0306 11.0424L80.7084 11.3654L80.0989 10.7545H78.3755L77.766 11.3654L77.4438 11.0424L78.0533 10.4316ZM78.0533 17.628V15.9009L77.4438 15.29L77.766 14.9671L78.3755 15.5779H80.0989L80.7084 14.9671L81.0306 15.29L80.4211 15.9009V17.628L81.0306 18.2388L80.7084 18.5618L80.0989 17.951H78.3755L77.766 18.5618L77.4438 18.2388L78.0533 17.628ZM78.0533 24.8244V23.0973L77.4438 22.4865L77.766 22.1635L78.3755 22.7743H80.0989L80.7084 22.1635L81.0306 22.4865L80.4211 23.0973V24.8244L81.0306 25.4353L80.7084 25.7582L80.0989 25.1474H78.3755L77.766 25.7582L77.4438 25.4353L78.0533 24.8244ZM81.6425 17.628V15.9009L81.033 15.29L81.3552 14.9671L81.033 14.6441L81.6425 14.0333V12.3062L81.033 11.6953L81.3552 11.3724L81.033 11.0494L81.6425 10.4386V8.71145L81.033 8.10063L81.3552 7.77767L81.9647 8.38849H83.6881L84.2976 7.77767L84.6198 8.10063L84.0103 8.71145V10.4386L84.6198 11.0494L84.2976 11.3724L84.6198 11.6953L84.0103 12.3062V14.0333L84.6198 14.6441L84.2976 14.9671L84.6198 15.29L84.0103 15.9009V17.628L84.6198 18.2388L84.2976 18.5618L83.6881 17.951H81.9647L81.3552 18.5618L81.033 18.2388L81.6425 17.628ZM81.6425 24.8244V23.0973L81.033 22.4865L81.3552 22.1635L81.9647 22.7743H83.6881L84.2976 22.1635L84.6198 22.4865L84.0103 23.0973V24.8244L84.6198 25.4353L84.2976 25.7582L83.6881 25.1474H81.9647L81.3552 25.7582L81.033 25.4353L81.6425 24.8244ZM84.2999 11.3677L83.6904 10.7569H81.967L81.3576 11.3677L81.967 11.9785H83.6904L84.2999 11.3677ZM81.3552 14.9647L81.9647 15.5756H83.6881L84.2976 14.9647L83.6881 14.3539H81.9647L81.3552 14.9647Z" fill="white"/>
<path d="M91.8753 17.628V15.9009L91.2658 15.29L91.588 14.9671L91.2658 14.6441L91.8753 14.0333V12.3062L91.2658 11.6953L91.588 11.3724L91.2658 11.0494L91.8753 10.4386V8.71145L91.2658 8.10063L91.588 7.77767L92.1975 8.38849H93.9209L94.5304 7.77767L94.8526 8.10063L94.2431 8.71145V10.4386L94.8526 11.0494L94.5304 11.3724L94.8526 11.6953L94.2431 12.3062V14.0333L94.8526 14.6441L94.5304 14.9671L94.8526 15.29L94.2431 15.9009V17.628L94.8526 18.2388L94.5304 18.5618L94.8526 18.8848L94.2431 19.4956V21.2227L94.8526 21.8335L94.5304 22.1565L94.8526 22.4795L94.2431 23.0903V24.8174L94.8526 25.4282L94.5304 25.7512L93.9209 25.1404H92.1975L91.588 25.7512L91.2658 25.4282L91.8753 24.8174V23.0903L91.2658 22.4795L91.588 22.1565L91.2658 21.8335L91.8753 21.2227V19.4956L91.2658 18.8848L91.588 18.5618L91.2658 18.2388L91.8753 17.628ZM94.5327 11.3677L93.9232 10.7569H92.1999L91.5904 11.3677L92.1999 11.9785H93.9232L94.5327 11.3677ZM91.588 14.9647L92.1975 15.5756H93.9209L94.5304 14.9647L93.9209 14.3539H92.1975L91.588 14.9647ZM91.588 18.5618L92.1975 19.1726H93.9209L94.5304 18.5618L93.9209 17.951H92.1975L91.588 18.5618ZM91.588 22.1588L92.1975 22.7697H93.9209L94.5304 22.1588L93.9209 21.548H92.1975L91.588 22.1588ZM95.4644 10.4292V8.70209L94.855 8.09127L95.1772 7.76831L95.7867 8.37913H97.5101L98.1196 7.76831L98.4418 8.09127L97.8323 8.70209V10.4292L98.4418 11.0401L98.1196 11.363L97.5101 10.7522H95.7867L95.1772 11.363L94.855 11.0401L95.4644 10.4292ZM95.4644 17.6257V15.8985L94.855 15.2877L95.1772 14.9647L95.7867 15.5756H97.5101L98.1196 14.9647L98.4418 15.2877L97.8323 15.8985V17.6257L98.4418 18.2365L98.1196 18.5595L97.5101 17.9486H95.7867L95.1772 18.5595L94.855 18.2365L95.4644 17.6257ZM95.4644 24.8221V23.095L94.855 22.4841L95.1772 22.1612L95.7867 22.772H97.5101L98.1196 22.1612L98.4418 22.4841L97.8323 23.095V24.8221L98.4418 25.4329L98.1196 25.7559L97.5101 25.1451H95.7867L95.1772 25.7559L94.855 25.4329L95.4644 24.8221ZM99.0536 10.4316V8.70443L98.4441 8.09361L98.7664 7.77065L99.3759 8.38147H101.099L101.709 7.77065L102.031 8.09361L101.422 8.70443V10.4316L102.031 11.0424L101.709 11.3654L101.099 10.7545H99.3759L98.7664 11.3654L98.4441 11.0424L99.0536 10.4316ZM99.0536 17.628V15.9009L98.4441 15.29L98.7664 14.9671L99.3759 15.5779H101.099L101.709 14.9671L102.031 15.29L101.422 15.9009V17.628L102.031 18.2388L101.709 18.5618L101.099 17.951H99.3759L98.7664 18.5618L98.4441 18.2388L99.0536 17.628ZM99.0536 24.8244V23.0973L98.4441 22.4865L98.7664 22.1635L99.3759 22.7743H101.099L101.709 22.1635L102.031 22.4865L101.422 23.0973V24.8244L102.031 25.4353L101.709 25.7582L101.099 25.1474H99.3759L98.7664 25.7582L98.4441 25.4353L99.0536 24.8244ZM102.643 17.628V15.9009L102.033 15.29L102.356 14.9671L102.033 14.6441L102.643 14.0333V12.3062L102.033 11.6953L102.356 11.3724L102.033 11.0494L102.643 10.4386V8.71145L102.033 8.10063L102.356 7.77767L102.965 8.38849H104.688L105.298 7.77767L105.62 8.10063L105.011 8.71145V10.4386L105.62 11.0494L105.298 11.3724L105.62 11.6953L105.011 12.3062V14.0333L105.62 14.6441L105.298 14.9671L105.62 15.29L105.011 15.9009V17.628L105.62 18.2388L105.298 18.5618L104.688 17.951H102.965L102.356 18.5618L102.033 18.2388L102.643 17.628ZM102.643 24.8244V23.0973L102.033 22.4865L102.356 22.1635L102.965 22.7743H104.688L105.298 22.1635L105.62 22.4865L105.011 23.0973V24.8244L105.62 25.4353L105.298 25.7582L104.688 25.1474H102.965L102.356 25.7582L102.033 25.4353L102.643 24.8244ZM105.3 11.3677L104.691 10.7569H102.967L102.358 11.3677L102.967 11.9785H104.691L105.3 11.3677ZM102.356 14.9647L102.965 15.5756H104.688L105.298 14.9647L104.688 14.3539H102.965L102.356 14.9647Z" fill="white"/>
<path d="M112.878 14.0308V12.3037L112.268 11.6929L112.591 11.3699L112.268 11.0469L112.878 10.4361V8.70897L112.268 8.09815L112.591 7.77519L113.2 8.38601H114.924L115.533 7.77519L115.855 8.09815L115.246 8.70897V10.4361L115.855 11.0469L115.533 11.3699L115.855 11.6929L115.246 12.3037V14.0308L115.855 14.6416L115.533 14.9646L115.855 15.2876L115.246 15.8984V17.6255L115.855 18.2363L115.533 18.5593L115.855 18.8823L115.246 19.4931V21.2202L115.855 21.8311L115.533 22.154L115.855 22.477L115.246 23.0878V24.8149L115.855 25.4258L115.533 25.7487L114.924 25.1379H113.2L112.591 25.7487L112.268 25.4258L112.878 24.8149V23.0878L112.268 22.477L112.591 22.154L112.268 21.8311L112.878 21.2202V19.4931L112.268 18.8823L112.591 18.5593L112.268 18.2363L112.878 17.6255V15.8984L112.268 15.2876L112.591 14.9646L112.268 14.6416L112.878 14.0308ZM112.591 11.3676L113.2 11.9784H114.924L115.533 11.3676L114.924 10.7567H113.2L112.591 11.3676ZM112.591 14.9646L113.2 15.5754H114.924L115.533 14.9646L114.924 14.3538H113.2L112.591 14.9646ZM112.591 18.5616L113.2 19.1725H114.924L115.533 18.5616L114.924 17.9508H113.2L112.591 18.5616ZM112.591 22.1587L113.2 22.7695H114.924L115.533 22.1587L114.924 21.5479H113.2L112.591 22.1587ZM116.467 14.0285V12.3013L115.858 11.6905L116.18 11.3676L116.789 11.9784H118.513L119.122 11.3676L119.444 11.6905L118.835 12.3013V14.0285L119.444 14.6393L119.122 14.9623L118.513 14.3514H116.789L116.18 14.9623L115.858 14.6393L116.467 14.0285ZM120.056 10.4314V8.70429L119.447 8.09347L119.769 7.77051L120.379 8.38133H122.102L122.711 7.77051L123.034 8.09347L122.424 8.70429V10.4314L123.034 11.0423L122.711 11.3652L122.102 10.7544H120.379L119.769 11.3652L119.447 11.0423L120.056 10.4314Z" fill="white"/>
<path d="M127.06 14.0309V12.3038L126.45 11.693L126.772 11.37L127.382 11.9808H129.105L129.715 11.37L130.037 11.693L129.427 12.3038V14.0309L130.037 14.6417L129.715 14.9647L129.105 14.3539H127.382L126.772 14.9647L126.45 14.6417L127.06 14.0309ZM127.06 24.8244V23.0973L126.45 22.4864L126.772 22.1635L127.382 22.7743H129.105L129.715 22.1635L130.037 22.4864L129.427 23.0973V24.8244L130.037 25.4352L129.715 25.7582L129.105 25.1474H127.382L126.772 25.7582L126.45 25.4352L127.06 24.8244ZM130.649 10.4339V8.70673L130.039 8.09591L130.362 7.77295L130.971 8.38377H132.694L133.304 7.77295L133.626 8.09591L133.017 8.70673V10.4339L133.626 11.0447L133.304 11.3677L132.694 10.7568H130.971L130.362 11.3677L130.039 11.0447L130.649 10.4339ZM130.649 17.6303V15.9032L130.039 15.2923L130.362 14.9694L130.971 15.5802H132.694L133.304 14.9694L133.626 15.2923L133.017 15.9032V17.6303L133.626 18.2411L133.304 18.5641L132.694 17.9533H130.971L130.362 18.5641L130.039 18.2411L130.649 17.6303ZM130.649 24.8267V23.0996L130.039 22.4888L130.362 22.1658L130.971 22.7766H132.694L133.304 22.1658L133.626 22.4888L133.017 23.0996V24.8267L133.626 25.4376L133.304 25.7605L132.694 25.1497H130.971L130.362 25.7605L130.039 25.4376L130.649 24.8267ZM134.238 10.4362V8.70907L133.628 8.09825L133.951 7.77529L134.56 8.38611H136.284L136.893 7.77529L137.215 8.09825L136.606 8.70907V10.4362L137.215 11.047L136.893 11.37L136.284 10.7592H134.56L133.951 11.37L133.628 11.047L134.238 10.4362ZM134.238 21.2297V19.5026L133.628 18.8917L133.951 18.5688L134.56 19.1796H136.284L136.893 18.5688L137.215 18.8917L136.606 19.5026V21.2297L137.215 21.8405L136.893 22.1635L136.284 21.5527H134.56L133.951 22.1635L133.628 21.8405L134.238 21.2297Z" fill="white"/>
<path d="M151.651 10.4315V8.70437L151.042 8.09355L151.364 7.77059L151.974 8.38141H153.697L154.307 7.77059L154.629 8.09355L154.019 8.70437V10.4315L154.629 11.0423L154.307 11.3653L153.697 10.7545H151.974L151.364 11.3653L151.042 11.0423L151.651 10.4315ZM155.241 14.0286V12.3014L154.631 11.6906L154.953 11.3676L154.631 11.0447L155.241 10.4339V8.70671L154.631 8.09589L154.953 7.77293L154.631 7.44997L155.241 6.83915V5.112L154.631 4.50118L154.953 4.17822L155.563 4.78904H157.286L157.896 4.17822L158.218 4.50118L157.608 5.112V6.83915L158.218 7.44997L157.896 7.77293L158.218 8.09589L157.608 8.70671V10.4339L158.218 11.0447L157.896 11.3676L158.218 11.6906L157.608 12.3014V14.0286L158.218 14.6394L157.896 14.9623L158.218 15.2853L157.608 15.8961V17.6233L158.218 18.2341L157.896 18.557L158.218 18.88L157.608 19.4908V21.218L158.218 21.8288L157.896 22.1518L158.218 22.4747L157.608 23.0855V24.8127L158.218 25.4235L157.896 25.7465L157.286 25.1356H155.563L154.953 25.7465L154.631 25.4235L155.241 24.8127V23.0855L154.631 22.4747L154.953 22.1518L154.631 21.8288L155.241 21.218V19.4908L154.631 18.88L154.953 18.557L154.631 18.2341L155.241 17.6233V15.8961L154.631 15.2853L154.953 14.9623L154.631 14.6394L155.241 14.0286ZM157.898 7.76825L157.289 7.15743H155.565L154.956 7.76825L155.565 8.37907H157.289L157.898 7.76825ZM154.953 11.3653L155.563 11.9761H157.286L157.896 11.3653L157.286 10.7545H155.563L154.953 11.3653ZM154.953 14.9623L155.563 15.5732H157.286L157.896 14.9623L157.286 14.3515H155.563L154.953 14.9623ZM154.953 18.5594L155.563 19.1702H157.286L157.896 18.5594L157.286 17.9486H155.563L154.953 18.5594ZM154.953 22.1564L155.563 22.7673H157.286L157.896 22.1564L157.286 21.5456H155.563L154.953 22.1564ZM158.83 10.4268V8.69969L158.22 8.08887L158.543 7.76591L159.152 8.37673H160.875L161.485 7.76591L161.807 8.08887L161.198 8.69969V10.4268L161.807 11.0377L161.485 11.3606L160.875 10.7498H159.152L158.543 11.3606L158.22 11.0377L158.83 10.4268ZM158.83 24.8174V23.0902L158.22 22.4794L158.543 22.1564L159.152 22.7673H160.875L161.485 22.1564L161.807 22.4794L161.198 23.0902V24.8174L161.807 25.4282L161.485 25.7511L160.875 25.1403H159.152L158.543 25.7511L158.22 25.4282L158.83 24.8174ZM162.419 10.4268V8.69969L161.81 8.08887L162.132 7.76591L162.741 8.37673H164.465L165.074 7.76591L165.396 8.08887L164.787 8.69969V10.4268L165.396 11.0377L165.074 11.3606L164.465 10.7498H162.741L162.132 11.3606L161.81 11.0377L162.419 10.4268ZM162.419 24.8174V23.0902L161.81 22.4794L162.132 22.1564L162.741 22.7673H164.465L165.074 22.1564L165.396 22.4794L164.787 23.0902V24.8174L165.396 25.4282L165.074 25.7511L164.465 25.1403H162.741L162.132 25.7511L161.81 25.4282L162.419 24.8174Z" fill="white"/>
<path d="M171.755 17.628V15.9009L171.146 15.29L171.468 14.9671L171.146 14.6441L171.755 14.0333V12.3062L171.146 11.6953L171.468 11.3724L171.146 11.0494L171.755 10.4386V8.71145L171.146 8.10063L171.468 7.77767L172.077 8.38849H173.801L174.41 7.77767L174.732 8.10063L174.123 8.71145V10.4386L174.732 11.0494L174.41 11.3724L174.732 11.6953L174.123 12.3062V14.0333L174.732 14.6441L174.41 14.9671L174.732 15.29L174.123 15.9009V17.628L174.732 18.2388L174.41 18.5618L174.732 18.8848L174.123 19.4956V21.2227L174.732 21.8335L174.41 22.1565L174.732 22.4795L174.123 23.0903V24.8174L174.732 25.4282L174.41 25.7512L173.801 25.1404H172.077L171.468 25.7512L171.146 25.4282L171.755 24.8174V23.0903L171.146 22.4795L171.468 22.1565L171.146 21.8335L171.755 21.2227V19.4956L171.146 18.8848L171.468 18.5618L171.146 18.2388L171.755 17.628ZM174.413 11.3677L173.803 10.7569H172.08L171.47 11.3677L172.08 11.9785H173.803L174.413 11.3677ZM171.468 14.9647L172.077 15.5756H173.801L174.41 14.9647L173.801 14.3539H172.077L171.468 14.9647ZM171.468 18.5618L172.077 19.1726H173.801L174.41 18.5618L173.801 17.951H172.077L171.468 18.5618ZM171.468 22.1588L172.077 22.7697H173.801L174.41 22.1588L173.801 21.548H172.077L171.468 22.1588ZM175.344 10.4292V8.70209L174.735 8.09127L175.057 7.76831L175.667 8.37913H177.39L177.999 7.76831L178.322 8.09127L177.712 8.70209V10.4292L178.322 11.0401L177.999 11.363L177.39 10.7522H175.667L175.057 11.363L174.735 11.0401L175.344 10.4292ZM175.344 24.8198V23.0926L174.735 22.4818L175.057 22.1588L175.667 22.7697H177.39L177.999 22.1588L178.322 22.4818L177.712 23.0926V24.8198L178.322 25.4306L177.999 25.7535L177.39 25.1427H175.667L175.057 25.7535L174.735 25.4306L175.344 24.8198ZM178.933 10.4292V8.70209L178.324 8.09127L178.646 7.76831L179.256 8.37913H180.979L181.589 7.76831L181.911 8.09127L181.301 8.70209V10.4292L181.911 11.0401L181.589 11.363L180.979 10.7522H179.256L178.646 11.363L178.324 11.0401L178.933 10.4292ZM178.933 24.8198V23.0926L178.324 22.4818L178.646 22.1588L179.256 22.7697H180.979L181.589 22.1588L181.911 22.4818L181.301 23.0926V24.8198L181.911 25.4306L181.589 25.7535L180.979 25.1427H179.256L178.646 25.7535L178.324 25.4306L178.933 24.8198ZM182.523 17.6233V15.8962L181.913 15.2854L182.235 14.9624L181.913 14.6394L182.523 14.0286V12.3015L181.913 11.6907L182.235 11.3677L181.913 11.0447L182.523 10.4339V8.70677L181.913 8.09595L182.235 7.77299L182.845 8.38381H184.568L185.178 7.77299L185.5 8.09595L184.891 8.70677V10.4339L185.5 11.0447L185.178 11.3677L185.5 11.6907L184.891 12.3015V14.0286L185.5 14.6394L185.178 14.9624L185.5 15.2854L184.891 15.8962V17.6233L185.5 18.2341L185.178 18.5571L185.5 18.8801L184.891 19.4909V21.218L185.5 21.8289L185.178 22.1518L185.5 22.4748L184.891 23.0856V24.8127L185.5 25.4236L185.178 25.7465L184.568 25.1357H182.845L182.235 25.7465L181.913 25.4236L182.523 24.8127V23.0856L181.913 22.4748L182.235 22.1518L181.913 21.8289L182.523 21.218V19.4909L181.913 18.8801L182.235 18.5571L181.913 18.2341L182.523 17.6233ZM185.18 11.363L184.571 10.7522H182.847L182.238 11.363L182.847 11.9738H184.571L185.18 11.363ZM182.235 14.9601L182.845 15.5709H184.568L185.178 14.9601L184.568 14.3492H182.845L182.235 14.9601ZM182.235 18.5571L182.845 19.1679H184.568L185.178 18.5571L184.568 17.9463H182.845L182.235 18.5571ZM182.235 22.1542L182.845 22.765H184.568L185.178 22.1542L184.568 21.5433H182.845L182.235 22.1542Z" fill="white"/>
<path d="M2.15328 55.2241V50.5391L0.5 48.8822L1.37414 48.0061L3.02742 49.663H7.70222L9.3555 48.0061L10.2297 48.8822L8.57637 50.5391V55.2241L10.2297 56.881L9.3555 57.7571L7.70222 56.1002H3.02742L1.37414 57.7571L0.5 56.881L2.15328 55.2241ZM2.15328 104.023V99.3383L0.5 97.6814L1.37414 96.8053L0.5 95.9293L2.15328 94.2724V89.5874L0.5 87.9304L1.37414 87.0544L0.5 86.1783L2.15328 84.5214V79.8364L0.5 78.1795L1.37414 77.3034L3.02742 78.9603H7.70222L9.3555 77.3034L10.2297 78.1795L8.57637 79.8364V84.5214L10.2297 86.1783L9.3555 87.0544L10.2297 87.9304L8.57637 89.5874V94.2724L10.2297 95.9293L9.3555 96.8053L10.2297 97.6814L8.57637 99.3383V104.023L10.2297 105.68L9.3555 106.556L10.2297 107.432L8.57637 109.089V113.774L10.2297 115.431L9.3555 116.307L7.70222 114.65H3.02742L1.37414 116.307L0.5 115.431L2.15328 113.774V109.089L0.5 107.432L1.37414 106.556L0.5 105.68L2.15328 104.023ZM9.36183 87.0417L7.70855 85.3848H3.03376L1.38048 87.0417L3.03376 88.6986H7.70855L9.36183 87.0417ZM1.37414 96.799L3.02742 98.4559H7.70222L9.3555 96.799L7.70222 95.1421H3.02742L1.37414 96.799ZM1.37414 106.556L3.02742 108.213H7.70222L9.3555 106.556L7.70222 104.899H3.02742L1.37414 106.556ZM11.8893 55.2241V50.5391L10.236 48.8822L11.1101 48.0061L12.7634 49.663H17.4382L19.0915 48.0061L19.9656 48.8822L18.3124 50.5391V55.2241L19.9656 56.881L19.0915 57.7571L17.4382 56.1002H12.7634L11.1101 57.7571L10.236 56.881L11.8893 55.2241ZM11.8893 84.5024V79.8173L10.236 78.1604L11.1101 77.2844L12.7634 78.9413H17.4382L19.0915 77.2844L19.9656 78.1604L18.3124 79.8173V84.5024L19.9656 86.1593L19.0915 87.0353L17.4382 85.3784H12.7634L11.1101 87.0353L10.236 86.1593L11.8893 84.5024ZM11.8893 113.781V109.096L10.236 107.439L11.1101 106.563L12.7634 108.22H17.4382L19.0915 106.563L19.9656 107.439L18.3124 109.096V113.781L19.9656 115.438L19.0915 116.314L17.4382 114.657H12.7634L11.1101 116.314L10.236 115.438L11.8893 113.781ZM21.6252 55.2241V50.5391L19.972 48.8822L20.8461 48.0061L22.4994 49.663H27.1742L28.8275 48.0061L29.7016 48.8822L28.0483 50.5391V55.2241L29.7016 56.881L28.8275 57.7571L27.1742 56.1002H22.4994L20.8461 57.7571L19.972 56.881L21.6252 55.2241ZM21.6252 84.5024V79.8173L19.972 78.1604L20.8461 77.2844L22.4994 78.9413H27.1742L28.8275 77.2844L29.7016 78.1604L28.0483 79.8173V84.5024L29.7016 86.1593L28.8275 87.0353L27.1742 85.3784H22.4994L20.8461 87.0353L19.972 86.1593L21.6252 84.5024ZM21.6252 113.781V109.096L19.972 107.439L20.8461 106.563L22.4994 108.22H27.1742L28.8275 106.563L29.7016 107.439L28.0483 109.096V113.781L29.7016 115.438L28.8275 116.314L27.1742 114.657H22.4994L20.8461 116.314L19.972 115.438L21.6252 113.781ZM31.3612 55.2241V50.5391L29.708 48.8822L30.5821 48.0061L32.2354 49.663H36.9102L38.5635 48.0061L39.4376 48.8822L37.7843 50.5391V55.2241L39.4376 56.881L38.5635 57.7571L39.4376 58.6331L37.7843 60.29V64.975L39.4376 66.632L38.5635 67.508L39.4376 68.3841L37.7843 70.041V74.726L39.4376 76.3829L38.5635 77.259L39.4376 78.135L37.7843 79.7919V84.477L39.4376 86.1339L38.5635 87.0099L36.9102 85.353H32.2354L30.5821 87.0099L29.708 86.1339L31.3612 84.477V79.7919L29.708 78.135L30.5821 77.259L29.708 76.3829L31.3612 74.726V70.041L29.708 68.3841L30.5821 67.508L29.708 66.632L31.3612 64.975V60.29L29.708 58.6331L30.5821 57.7571L29.708 56.881L31.3612 55.2241ZM31.3612 113.781V109.096L29.708 107.439L30.5821 106.563L32.2354 108.22H36.9102L38.5635 106.563L39.4376 107.439L37.7843 109.096V113.781L39.4376 115.438L38.5635 116.314L36.9102 114.657H32.2354L30.5821 116.314L29.708 115.438L31.3612 113.781ZM30.5821 57.7634L32.2354 59.4203H36.9102L38.5635 57.7634L36.9102 56.1065H32.2354L30.5821 57.7634ZM30.5821 67.5207L32.2354 69.1776H36.9102L38.5635 67.5207L36.9102 65.8638H32.2354L30.5821 67.5207ZM38.5698 77.278L36.9165 75.6211H32.2417L30.5884 77.278L32.2417 78.9349H36.9165L38.5698 77.278Z" fill="white"/>
<path d="M59.6127 113.781V109.096L57.9594 107.439L58.8336 106.563L57.9594 105.687L59.6127 104.03V99.3449L57.9594 97.688L58.8336 96.8119L57.9594 95.9359L59.6127 94.279V89.5939L57.9594 87.937L58.8336 87.061L57.9594 86.1849L59.6127 84.528V79.843L57.9594 78.1861L58.8336 77.31L57.9594 76.434L59.6127 74.7771V70.092L57.9594 68.4351L58.8336 67.5591L57.9594 66.683L59.6127 65.0261V60.3411L57.9594 58.6842L58.8336 57.8081L57.9594 56.932L59.6127 55.2751V50.5901L57.9594 48.9332L58.8336 48.0571L60.4868 49.714H65.1616L66.8149 48.0571L67.6891 48.9332L66.0358 50.5901V55.2751L67.6891 56.932L66.8149 57.8081L67.6891 58.6842L66.0358 60.3411V65.0261L67.6891 66.683L66.8149 67.5591L67.6891 68.4351L66.0358 70.092V74.7771L67.6891 76.434L66.8149 77.31L67.6891 78.1861L66.0358 79.843V84.528L67.6891 86.1849L66.8149 87.061L67.6891 87.937L66.0358 89.5939V94.279L67.6891 95.9359L66.8149 96.8119L67.6891 97.688L66.0358 99.3449V104.03L67.6891 105.687L66.8149 106.563L67.6891 107.439L66.0358 109.096V113.781L67.6891 115.438L66.8149 116.314L65.1616 114.657H60.4868L58.8336 116.314L57.9594 115.438L59.6127 113.781ZM66.8213 57.7637L65.168 56.1068H60.4932L58.8399 57.7637L60.4932 59.4206H65.168L66.8213 57.7637ZM66.8213 67.521L65.168 65.8641H60.4932L58.8399 67.521L60.4932 69.1779H65.168L66.8213 67.521ZM66.8213 77.2783L65.168 75.6214H60.4932L58.8399 77.2783L60.4932 78.9352H65.168L66.8213 77.2783ZM66.8213 87.0356L65.168 85.3787H60.4932L58.8399 87.0356L60.4932 88.6925H65.168L66.8213 87.0356ZM66.8213 96.7929L65.168 95.136H60.4932L58.8399 96.7929L60.4932 98.4498H65.168L66.8213 96.7929ZM58.8336 106.55L60.4868 108.207H65.1616L66.8149 106.55L65.1616 104.893H60.4868L58.8336 106.55ZM69.3487 55.218V50.533L67.6954 48.8761L68.5696 48L70.2228 49.6569H74.8976L76.5509 48L77.4251 48.8761L75.7718 50.533V55.218L77.4251 56.8749L76.5509 57.751L74.8976 56.0941H70.2228L68.5696 57.751L67.6954 56.8749L69.3487 55.218ZM69.3487 113.775V109.09L67.6954 107.433L68.5696 106.557L70.2228 108.213H74.8976L76.5509 106.557L77.4251 107.433L75.7718 109.09V113.775L77.4251 115.431L76.5509 116.308L74.8976 114.651H70.2228L68.5696 116.308L67.6954 115.431L69.3487 113.775ZM79.0847 55.218V50.533L77.4314 48.8761L78.3055 48L79.9588 49.6569H84.6336L86.2869 48L87.1611 48.8761L85.5078 50.533V55.218L87.1611 56.8749L86.2869 57.751L84.6336 56.0941H79.9588L78.3055 57.751L77.4314 56.8749L79.0847 55.218ZM79.0847 113.775V109.09L77.4314 107.433L78.3055 106.557L79.9588 108.213H84.6336L86.2869 106.557L87.1611 107.433L85.5078 109.09V113.775L87.1611 115.431L86.2869 116.308L84.6336 114.651H79.9588L78.3055 116.308L77.4314 115.431L79.0847 113.775ZM88.8207 113.775V109.09L87.1674 107.433L88.0415 106.557L87.1674 105.68L88.8207 104.024V99.3386L87.1674 97.6817L88.0415 96.8056L87.1674 95.9295L88.8207 94.2726V89.5876L87.1674 87.9307L88.0415 87.0546L87.1674 86.1786L88.8207 84.5217V79.8366L87.1674 78.1797L88.0415 77.3037L87.1674 76.4276L88.8207 74.7707V70.0857L87.1674 68.4288L88.0415 67.5527L87.1674 66.6766L88.8207 65.0197V60.3347L87.1674 58.6778L88.0415 57.8018L87.1674 56.9257L88.8207 55.2688V50.5838L87.1674 48.9268L88.0415 48.0508L89.6948 49.7077H94.3696L96.0229 48.0508L96.897 48.9268L95.2438 50.5838V55.2688L96.897 56.9257L96.0229 57.8018L96.897 58.6778L95.2438 60.3347V65.0197L96.897 66.6766L96.0229 67.5527L96.897 68.4288L95.2438 70.0857V74.7707L96.897 76.4276L96.0229 77.3037L96.897 78.1797L95.2438 79.8366V84.5217L96.897 86.1786L96.0229 87.0546L96.897 87.9307L95.2438 89.5876V94.2726L96.897 95.9295L96.0229 96.8056L96.897 97.6817L95.2438 99.3386V104.024L96.897 105.68L96.0229 106.557L96.897 107.433L95.2438 109.09V113.775L96.897 115.431L96.0229 116.308L94.3696 114.651H89.6948L88.0415 116.308L87.1674 115.431L88.8207 113.775ZM96.0292 57.7573L94.3759 56.1004H89.7012L88.0479 57.7573L89.7012 59.4142H94.3759L96.0292 57.7573ZM96.0292 67.5146L94.3759 65.8577H89.7012L88.0479 67.5146L89.7012 69.1715H94.3759L96.0292 67.5146ZM96.0292 77.2719L94.3759 75.615H89.7012L88.0479 77.2719L89.7012 78.9288H94.3759L96.0292 77.2719ZM96.0292 87.0292L94.3759 85.3723H89.7012L88.0479 87.0292L89.7012 88.6861H94.3759L96.0292 87.0292ZM96.0292 96.7866L94.3759 95.1296H89.7012L88.0479 96.7866L89.7012 98.4434H94.3759L96.0292 96.7866ZM88.0415 106.544L89.6948 108.201H94.3696L96.0229 106.544L94.3696 104.887H89.6948L88.0415 106.544Z" fill="white"/>
<path d="M117.066 55.2241V50.5391L115.413 48.8822L116.287 48.0061L117.94 49.663H122.615L124.268 48.0061L125.142 48.8822L123.489 50.5391V55.2241L125.142 56.881L124.268 57.7571L122.615 56.1002H117.94L116.287 57.7571L115.413 56.881L117.066 55.2241ZM117.066 104.023V99.3383L115.413 97.6814L116.287 96.8053L115.413 95.9293L117.066 94.2724V89.5874L115.413 87.9304L116.287 87.0544L115.413 86.1783L117.066 84.5214V79.8364L115.413 78.1795L116.287 77.3034L117.94 78.9603H122.615L124.268 77.3034L125.142 78.1795L123.489 79.8364V84.5214L125.142 86.1783L124.268 87.0544L125.142 87.9304L123.489 89.5874V94.2724L125.142 95.9293L124.268 96.8053L125.142 97.6814L123.489 99.3383V104.023L125.142 105.68L124.268 106.556L125.142 107.432L123.489 109.089V113.774L125.142 115.431L124.268 116.307L122.615 114.65H117.94L116.287 116.307L115.413 115.431L117.066 113.774V109.089L115.413 107.432L116.287 106.556L115.413 105.68L117.066 104.023ZM124.274 87.0417L122.621 85.3848H117.946L116.293 87.0417L117.946 88.6986H122.621L124.274 87.0417ZM116.287 96.799L117.94 98.4559H122.615L124.268 96.799L122.615 95.1421H117.94L116.287 96.799ZM116.287 106.556L117.94 108.213H122.615L124.268 106.556L122.615 104.899H117.94L116.287 106.556ZM126.802 55.2241V50.5391L125.149 48.8822L126.023 48.0061L127.676 49.663H132.351L134.004 48.0061L134.878 48.8822L133.225 50.5391V55.2241L134.878 56.881L134.004 57.7571L132.351 56.1002H127.676L126.023 57.7571L125.149 56.881L126.802 55.2241ZM126.802 84.5024V79.8173L125.149 78.1604L126.023 77.2844L127.676 78.9413H132.351L134.004 77.2844L134.878 78.1604L133.225 79.8173V84.5024L134.878 86.1593L134.004 87.0353L132.351 85.3784H127.676L126.023 87.0353L125.149 86.1593L126.802 84.5024ZM126.802 113.781V109.096L125.149 107.439L126.023 106.563L127.676 108.22H132.351L134.004 106.563L134.878 107.439L133.225 109.096V113.781L134.878 115.438L134.004 116.314L132.351 114.657H127.676L126.023 116.314L125.149 115.438L126.802 113.781ZM136.538 55.2241V50.5391L134.884 48.8822L135.759 48.0061L137.412 49.663H142.087L143.74 48.0061L144.614 48.8822L142.961 50.5391V55.2241L144.614 56.881L143.74 57.7571L142.087 56.1002H137.412L135.759 57.7571L134.884 56.881L136.538 55.2241ZM136.538 84.5024V79.8173L134.884 78.1604L135.759 77.2844L137.412 78.9413H142.087L143.74 77.2844L144.614 78.1604L142.961 79.8173V84.5024L144.614 86.1593L143.74 87.0353L142.087 85.3784H137.412L135.759 87.0353L134.884 86.1593L136.538 84.5024ZM136.538 113.781V109.096L134.884 107.439L135.759 106.563L137.412 108.22H142.087L143.74 106.563L144.614 107.439L142.961 109.096V113.781L144.614 115.438L143.74 116.314L142.087 114.657H137.412L135.759 116.314L134.884 115.438L136.538 113.781ZM146.274 55.2241V50.5391L144.62 48.8822L145.495 48.0061L147.148 49.663H151.823L153.476 48.0061L154.35 48.8822L152.697 50.5391V55.2241L154.35 56.881L153.476 57.7571L154.35 58.6331L152.697 60.29V64.975L154.35 66.632L153.476 67.508L154.35 68.3841L152.697 70.041V74.726L154.35 76.3829L153.476 77.259L154.35 78.135L152.697 79.7919V84.477L154.35 86.1339L153.476 87.0099L151.823 85.353H147.148L145.495 87.0099L144.62 86.1339L146.274 84.477V79.7919L144.62 78.135L145.495 77.259L144.62 76.3829L146.274 74.726V70.041L144.62 68.3841L145.495 67.508L144.62 66.632L146.274 64.975V60.29L144.62 58.6331L145.495 57.7571L144.62 56.881L146.274 55.2241ZM146.274 113.781V109.096L144.62 107.439L145.495 106.563L147.148 108.22H151.823L153.476 106.563L154.35 107.439L152.697 109.096V113.781L154.35 115.438L153.476 116.314L151.823 114.657H147.148L145.495 116.314L144.62 115.438L146.274 113.781ZM145.495 57.7634L147.148 59.4203H151.823L153.476 57.7634L151.823 56.1065H147.148L145.495 57.7634ZM145.495 67.5207L147.148 69.1776H151.823L153.476 67.5207L151.823 65.8638H147.148L145.495 67.5207ZM153.482 77.278L151.829 75.6211H147.154L145.501 77.278L147.154 78.9349H151.829L153.482 77.278Z" fill="white"/>
<path d="M172.574 55.2241V50.5391L170.921 48.8822L171.795 48.0061L173.448 49.663H178.123L179.776 48.0061L180.651 48.8822L178.997 50.5391V55.2241L180.651 56.881L179.776 57.7571L178.123 56.1002H173.448L171.795 57.7571L170.921 56.881L172.574 55.2241ZM172.574 84.5024V79.8173L170.921 78.1604L171.795 77.2844L173.448 78.9413H178.123L179.776 77.2844L180.651 78.1604L178.997 79.8173V84.5024L180.651 86.1593L179.776 87.0353L178.123 85.3784H173.448L171.795 87.0353L170.921 86.1593L172.574 84.5024ZM172.574 113.781V109.096L170.921 107.439L171.795 106.563L173.448 108.22H178.123L179.776 106.563L180.651 107.439L178.997 109.096V113.781L180.651 115.438L179.776 116.314L178.123 114.657H173.448L171.795 116.314L170.921 115.438L172.574 113.781ZM182.31 55.2241V50.5391L180.657 48.8822L181.531 48.0061L183.184 49.663H187.859L189.512 48.0061L190.387 48.8822L188.733 50.5391V55.2241L190.387 56.881L189.512 57.7571L187.859 56.1002H183.184L181.531 57.7571L180.657 56.881L182.31 55.2241ZM182.31 84.5024V79.8173L180.657 78.1604L181.531 77.2844L183.184 78.9413H187.859L189.512 77.2844L190.387 78.1604L188.733 79.8173V84.5024L190.387 86.1593L189.512 87.0353L187.859 85.3784H183.184L181.531 87.0353L180.657 86.1593L182.31 84.5024ZM182.31 113.781V109.096L180.657 107.439L181.531 106.563L183.184 108.22H187.859L189.512 106.563L190.387 107.439L188.733 109.096V113.781L190.387 115.438L189.512 116.314L187.859 114.657H183.184L181.531 116.314L180.657 115.438L182.31 113.781ZM192.046 55.2241V50.5391L190.393 48.8822L191.267 48.0061L192.92 49.663H197.595L199.248 48.0061L200.123 48.8822L198.469 50.5391V55.2241L200.123 56.881L199.248 57.7571L197.595 56.1002H192.92L191.267 57.7571L190.393 56.881L192.046 55.2241ZM192.046 84.5024V79.8173L190.393 78.1604L191.267 77.2844L192.92 78.9413H197.595L199.248 77.2844L200.123 78.1604L198.469 79.8173V84.5024L200.123 86.1593L199.248 87.0353L197.595 85.3784H192.92L191.267 87.0353L190.393 86.1593L192.046 84.5024ZM192.046 113.781V109.096L190.393 107.439L191.267 106.563L192.92 108.22H197.595L199.248 106.563L200.123 107.439L198.469 109.096V113.781L200.123 115.438L199.248 116.314L197.595 114.657H192.92L191.267 116.314L190.393 115.438L192.046 113.781ZM201.782 104.023V99.3383L200.129 97.6814L201.003 96.8053L200.129 95.9293L201.782 94.2724V89.5874L200.129 87.9304L201.003 87.0544L200.129 86.1783L201.782 84.5214V79.8364L200.129 78.1795L201.003 77.3034L200.129 76.4274L201.782 74.7704V70.0854L200.129 68.4285L201.003 67.5525L200.129 66.6764L201.782 65.0195V60.3345L200.129 58.6776L201.003 57.8015L200.129 56.9254L201.782 55.2685V50.5835L200.129 48.9266L201.003 48.0505L202.656 49.7074H207.331L208.984 48.0505L209.859 48.9266L208.205 50.5835V55.2685L209.859 56.9254L208.984 57.8015L209.859 58.6776L208.205 60.3345V65.0195L209.859 66.6764L208.984 67.5525L209.859 68.4285L208.205 70.0854V74.7704L209.859 76.4274L208.984 77.3034L209.859 78.1795L208.205 79.8364V84.5214L209.859 86.1783L208.984 87.0544L209.859 87.9304L208.205 89.5874V94.2724L209.859 95.9293L208.984 96.8053L209.859 97.6814L208.205 99.3383V104.023L209.859 105.68L208.984 106.556L209.859 107.432L208.205 109.089V113.774L209.859 115.431L208.984 116.307L207.331 114.65H202.656L201.003 116.307L200.129 115.431L201.782 113.774V109.089L200.129 107.432L201.003 106.556L200.129 105.68L201.782 104.023ZM201.003 57.7634L202.656 59.4203H207.331L208.984 57.7634L207.331 56.1065H202.656L201.003 57.7634ZM201.003 67.5207L202.656 69.1776H207.331L208.984 67.5207L207.331 65.8638H202.656L201.003 67.5207ZM208.991 77.278L207.337 75.6211H202.663L201.009 77.278L202.663 78.9349H207.337L208.991 77.278ZM208.991 87.0353L207.337 85.3784H202.663L201.009 87.0353L202.663 88.6922H207.337L208.991 87.0353ZM201.003 96.7926L202.656 98.4495H207.331L208.984 96.7926L207.331 95.1357H202.656L201.003 96.7926ZM201.003 106.55L202.656 108.207H207.331L208.984 106.55L207.331 104.893H202.656L201.003 106.55Z" fill="white"/>
</g>
<defs>
<clipPath id="clip0_13_748">
<rect width="210" height="117" fill="white" transform="translate(0.5)"/>
</clipPath>
</defs>
</svg>
