<svg width="207" height="103" viewBox="0 0 207 103" fill="none" xmlns="http://www.w3.org/2000/svg">
<path d="M28.8746 9.99283V7.47945L27.9905 6.59058L28.4579 6.1206L27.9905 5.65061L28.8746 4.76174V2.24495L27.9905 1.35267L28.4579 0.88269L29.3454 1.77157H31.8454L32.7295 0.88269L33.197 1.35267L32.3128 2.24155V4.75493L33.197 5.6438L32.7295 6.11378L33.197 6.58377L32.3128 7.47264V9.98602L33.197 10.8749L32.7295 11.3449L33.197 11.8149L32.3128 12.7037V15.2171L33.197 16.106L32.7295 16.576L33.197 17.046L32.3128 17.9348V20.4482L33.197 21.3371L32.7295 21.8071L33.197 22.277L32.3128 23.1659V25.6793L33.197 26.5682L32.7295 27.0382L33.197 27.5081L32.3128 28.397V30.9104L33.197 31.7993L32.7295 32.2693L33.197 32.7392L32.3128 33.6281V36.1415L33.197 37.0304L32.7295 37.5003L31.8454 36.6115H29.3454L28.4613 37.5003L27.9939 37.0304L28.878 36.1415V33.6281L27.9939 32.7392L28.4613 32.2693L27.9939 31.7993L28.878 30.9104V28.397L27.9939 27.5081L28.4613 27.0382L27.9939 26.5682L28.878 25.6793V23.1659L27.9939 22.277L28.4613 21.8071L27.9939 21.3371L28.878 20.4482V17.9348L27.9939 17.046L28.4613 16.576L27.9939 16.106L28.878 15.2171V12.7037L27.9939 11.8149L28.4613 11.3449L27.9939 10.8749L28.878 9.98602L28.8746 9.99283ZM28.4579 6.11719L29.3421 7.00607H31.842L32.7261 6.11719L31.842 5.22831H29.3454L28.4613 6.11719H28.4579ZM28.4579 11.3517L29.3421 12.2406H31.842L32.7261 11.3517L31.842 10.4628H29.3454L28.4613 11.3517H28.4579ZM28.4579 16.5862L29.3421 17.4751H31.842L32.7261 16.5862L31.842 15.6973H29.3454L28.4613 16.5862H28.4579ZM28.4579 21.8207L29.3421 22.7096H31.842L32.7261 21.8207L31.842 20.9318H29.3454L28.4613 21.8207H28.4579ZM28.4579 27.0552L29.3421 27.9441H31.842L32.7261 27.0552L31.842 26.1663H29.3454L28.4613 27.0552H28.4579ZM28.4579 32.2897L29.3421 33.1786H31.842L32.7261 32.2897L31.842 31.4008H29.3454L28.4613 32.2897H28.4579ZM34.0845 20.4652V17.9519L33.2004 17.063L33.6678 16.593L34.5519 17.4819H37.0519L37.936 16.593L38.4035 17.063L37.5193 17.9519V20.4652L38.4035 21.3541L37.936 21.8241L37.0519 20.9352H34.5519L33.6678 21.8241L33.2004 21.3541L34.0845 20.4652ZM39.291 20.4652V17.9519L38.4069 17.063L38.8743 16.593L39.7584 17.4819H42.2584L43.1425 16.593L43.61 17.063L42.7258 17.9519V20.4652L43.61 21.3541L43.1425 21.8241L42.2584 20.9352H39.7584L38.8743 21.8241L38.4069 21.3541L39.291 20.4652ZM44.4975 20.4652V17.9519L43.6134 17.063L44.0808 16.593L44.965 17.4819H47.4649L48.349 16.593L48.8165 17.063L47.9324 17.9519V20.4652L48.8165 21.3541L48.349 21.8241L47.4649 20.9352H44.965L44.0808 21.8241L43.6134 21.3541L44.4975 20.4652ZM49.704 9.99283V7.47945L48.8199 6.59058L49.2873 6.1206L48.8199 5.65061L49.704 4.76174V2.24495L48.8199 1.35608L49.2873 0.886096L50.1715 1.77497H52.6714L53.5555 0.886096L54.023 1.35608L53.1389 2.24495V4.75833L54.023 5.64721L53.5555 6.11719L54.023 6.58717L53.1389 7.47605V9.98942L54.023 10.8783L53.5555 11.3483L54.023 11.8183L53.1389 12.7071V15.2205L54.023 16.1094L53.5555 16.5794L54.023 17.0494L53.1389 17.9382V20.4516L54.023 21.3405L53.5555 21.8105L54.023 22.2805L53.1389 23.1693V25.6827L54.023 26.5716L53.5555 27.0416L54.023 27.5115L53.1389 28.4004V30.9138L54.023 31.8027L53.5555 32.2727L54.023 32.7426L53.1389 33.6315V36.1449L54.023 37.0338L53.5555 37.5037L52.6714 36.6149H50.1715L49.2873 37.5037L48.8199 37.0338L49.704 36.1449V33.6315L48.8199 32.7426L49.2873 32.2727L48.8199 31.8027L49.704 30.9138V28.4004L48.8199 27.5115L49.2873 27.0416L48.8199 26.5716L49.704 25.6827V23.1693L48.8199 22.2805L49.2873 21.8105L48.8199 21.3405L49.704 20.4516V17.9382L48.8199 17.0494L49.2873 16.5794L48.8199 16.1094L49.704 15.2205V12.7071L48.8199 11.8183L49.2873 11.3483L48.8199 10.8783L49.704 9.98942V9.99283ZM49.2873 6.11719L50.1715 7.00607H52.6714L53.5555 6.11719L52.6714 5.22831H50.1715L49.2873 6.11719ZM49.2873 11.3517L50.1715 12.2406H52.6714L53.5555 11.3517L52.6714 10.4628H50.1715L49.2873 11.3517ZM49.2873 16.5862L50.1715 17.4751H52.6714L53.5555 16.5862L52.6714 15.6973H50.1715L49.2873 16.5862ZM49.2873 21.8207L50.1715 22.7096H52.6714L53.5555 21.8207L52.6714 20.9318H50.1715L49.2873 21.8207ZM49.2873 27.0552L50.1715 27.9441H52.6714L53.5555 27.0552L52.6714 26.1663H50.1715L49.2873 27.0552ZM49.2873 32.2897L50.1715 33.1786H52.6714L53.5555 32.2897L52.6714 31.4008H50.1715L49.2873 32.2897Z" fill="white"/>
<path d="M65.3303 15.2273V12.7139L64.4461 11.8251L64.9136 11.3551L65.7977 12.2439H68.2977L69.1818 11.3551L69.6493 11.8251L68.7651 12.7139V15.2273L69.6493 16.1162L69.1818 16.5862L68.2977 15.6973H65.7977L64.9136 16.5862L64.4461 16.1162L65.3303 15.2273ZM65.3303 25.6997V23.1863L64.4461 22.2975L64.9136 21.8275L65.7977 22.7164H68.2977L69.1818 21.8275L69.6493 22.2975L68.7651 23.1863V25.6997L69.6493 26.5886L69.1818 27.0586L69.6493 27.5286L68.7651 28.4174V30.9308L69.6493 31.8197L69.1818 32.2897L69.6493 32.7596L68.7651 33.6485V36.1619L69.6493 37.0508L69.1818 37.5208L68.2977 36.6319H65.7977L64.9136 37.5208L64.4461 37.0508L65.3303 36.1619V33.6485L64.4461 32.7596L64.9136 32.2897L64.4461 31.8197L65.3303 30.9308V28.4174L64.4461 27.5286L64.9136 27.0586L64.4461 26.5886L65.3303 25.6997ZM69.1852 27.062L68.3011 26.1731H65.8011L64.917 27.062L65.8011 27.9509H68.3011L69.1852 27.062ZM69.1852 32.2965L68.3011 31.4076H65.8011L64.917 32.2965L65.8011 33.1854H68.3011L69.1852 32.2965ZM70.5402 15.2273V12.7139L69.656 11.8251L70.1235 11.3551L71.0076 12.2439H73.5076L74.3917 11.3551L74.8592 11.8251L73.975 12.7139V15.2273L74.8592 16.1162L74.3917 16.5862L73.5076 15.6973H71.0076L70.1235 16.5862L69.656 16.1162L70.5402 15.2273ZM70.5402 25.6997V23.1863L69.656 22.2975L70.1235 21.8275L71.0076 22.7164H73.5076L74.3917 21.8275L74.8592 22.2975L73.975 23.1863V25.6997L74.8592 26.5886L74.3917 27.0586L73.5076 26.1697H71.0076L70.1235 27.0586L69.656 26.5886L70.5402 25.6997ZM70.5402 36.1721V33.6587L69.656 32.7699L70.1235 32.2999L71.0076 33.1888H73.5076L74.3917 32.2999L74.8592 32.7699L73.975 33.6587V36.1721L74.8592 37.061L74.3917 37.531L73.5076 36.6421H71.0076L70.1235 37.531L69.656 37.061L70.5402 36.1721ZM75.7467 15.2307V12.7173L74.8625 11.8285L75.33 11.3585L76.2141 12.2474H78.7141L79.5982 11.3585L80.0657 11.8285L79.1815 12.7173V15.2307L80.0657 16.1196L79.5982 16.5896L78.7141 15.7007H76.2141L75.33 16.5896L74.8625 16.1196L75.7467 15.2307ZM75.7467 25.7031V23.1897L74.8625 22.3009L75.33 21.8309L76.2141 22.7198H78.7141L79.5982 21.8309L80.0657 22.3009L79.1815 23.1897V25.7031L80.0657 26.592L79.5982 27.062L78.7141 26.1731H76.2141L75.33 27.062L74.8625 26.592L75.7467 25.7031ZM75.7467 36.1755V33.6621L74.8625 32.7733L75.33 32.3033L76.2141 33.1922H78.7141L79.5982 32.3033L80.0657 32.7733L79.1815 33.6621V36.1755L80.0657 37.0644L79.5982 37.5344L78.7141 36.6455H76.2141L75.33 37.5344L74.8625 37.0644L75.7467 36.1755ZM80.9532 20.4686V17.9552L80.069 17.0664L80.5365 16.5964L80.069 16.1264L80.9532 15.2375V12.7241L80.069 11.8353L80.5365 11.3653L81.4206 12.2542H83.9206L84.8047 11.3653L85.2722 11.8353L84.388 12.7241V15.2375L85.2722 16.1264L84.8047 16.5964L85.2722 17.0664L84.388 17.9552V20.4686L85.2722 21.3575L84.8047 21.8275L85.2722 22.2975L84.388 23.1863V25.6997L85.2722 26.5886L84.8047 27.0586L85.2722 27.5286L84.388 28.4174V30.9308L85.2722 31.8197L84.8047 32.2897L85.2722 32.7596L84.388 33.6485V36.1619L85.2722 37.0508L84.8047 37.5208L83.9206 36.6319H81.4206L80.5365 37.5208L80.069 37.0508L80.9532 36.1619V33.6485L80.069 32.7596L80.5365 32.2897L80.069 31.8197L80.9532 30.9308V28.4174L80.069 27.5286L80.5365 27.0586L80.069 26.5886L80.9532 25.6997V23.1863L80.069 22.2975L80.5365 21.8275L80.069 21.3575L80.9532 20.4686ZM80.5365 16.593L81.4206 17.4819H83.9206L84.8047 16.593L83.9206 15.7041H81.4206L80.5365 16.593ZM80.5365 21.8275L81.4206 22.7164H83.9206L84.8047 21.8275L83.9206 20.9386H81.4206L80.5365 21.8275ZM80.5365 27.062L81.4206 27.9509H83.9206L84.8047 27.062L83.9206 26.1731H81.4206L80.5365 27.062ZM80.5365 32.2965L81.4206 33.1854H83.9206L84.8047 32.2965L83.9206 31.4076H81.4206L80.5365 32.2965Z" fill="white"/>
<path d="M96.5761 20.4652V17.9519L95.6919 17.063L96.1594 16.593L95.6919 16.123L96.5761 15.2341V12.7208L95.6919 11.8319L96.1594 11.3619L97.0435 12.2508H99.5435L100.428 11.3619L100.895 11.8319L100.011 12.7208V15.2341L100.895 16.123L100.428 16.593L100.895 17.063L100.011 17.9519V20.4652L100.895 21.3541L100.428 21.8241L100.895 22.2941L100.011 23.183V25.6963L100.895 26.5852L100.428 27.0552L100.895 27.5252L100.011 28.414V30.9274L100.895 31.8163L100.428 32.2863L100.895 32.7563L100.011 33.6451V36.1585L100.895 37.0474L100.428 37.5174L100.895 37.9874L100.011 38.8762V41.3896L100.895 42.2785L100.428 42.7485L100.895 43.2184L100.011 44.1073V46.6207L100.895 47.5096L100.428 47.9796L99.5435 47.0907H97.0435L96.1594 47.9796L95.6919 47.5096L96.5761 46.6207V44.1073L95.6919 43.2184L96.1594 42.7485L95.6919 42.2785L96.5761 41.3896V38.8762L95.6919 37.9874L96.1594 37.5174L95.6919 37.0474L96.5761 36.1585V33.6451L95.6919 32.7563L96.1594 32.2863L95.6919 31.8163L96.5761 30.9274V28.414L95.6919 27.5252L96.1594 27.0552L95.6919 26.5852L96.5761 25.6963V23.183L95.6919 22.2941L96.1594 21.8241L95.6919 21.3541L96.5761 20.4652ZM96.1594 16.5896L97.0435 17.4785H99.5435L100.428 16.5896L99.5435 15.7007H97.0435L96.1594 16.5896ZM96.1594 21.8241L97.0435 22.713H99.5435L100.428 21.8241L99.5435 20.9352H97.0435L96.1594 21.8241ZM96.1594 27.0586L97.0435 27.9475H99.5435L100.428 27.0586L99.5435 26.1697H97.0435L96.1594 27.0586ZM96.1594 32.2931L97.0435 33.182H99.5435L100.428 32.2931L99.5435 31.4042H97.0435L96.1594 32.2931ZM96.1594 37.5276L97.0435 38.4165H99.5435L100.428 37.5276L99.5435 36.6387H97.0435L96.1594 37.5276ZM96.1594 42.7621L97.0435 43.651H99.5435L100.428 42.7621L99.5435 41.8732H97.0435L96.1594 42.7621ZM101.783 20.4584V17.945L100.898 17.0562L101.366 16.5862L102.25 17.4751H104.75L105.634 16.5862L106.102 17.0562L105.217 17.945V20.4584L106.102 21.3473L105.634 21.8173L104.75 20.9284H102.25L101.366 21.8173L100.898 21.3473L101.783 20.4584ZM101.783 36.1653V33.6519L100.898 32.7631L101.366 32.2931L102.25 33.182H104.75L105.634 32.2931L106.102 32.7631L105.217 33.6519V36.1653L106.102 37.0542L105.634 37.5242L104.75 36.6353H102.25L101.366 37.5242L100.898 37.0542L101.783 36.1653ZM106.989 15.2239V12.7105L106.105 11.8217L106.572 11.3517L107.457 12.2406H109.956L110.841 11.3517L111.308 11.8217L110.424 12.7105V15.2239L111.308 16.1128L110.841 16.5828L109.956 15.6939H107.457L106.572 16.5828L106.105 16.1128L106.989 15.2239ZM106.989 36.1653V33.6519L106.105 32.7631L106.572 32.2931L107.457 33.182H109.956L110.841 32.2931L111.308 32.7631L110.424 33.6519V36.1653L111.308 37.0542L110.841 37.5242L109.956 36.6353H107.457L106.572 37.5242L106.105 37.0542L106.989 36.1653ZM112.196 20.4584V17.945L111.311 17.0562L111.779 16.5862L111.311 16.1162L112.196 15.2273V12.7139L111.311 11.8251L111.779 11.3551L112.663 12.244H115.163L116.047 11.3551L116.515 11.8251L115.63 12.7139V15.2273L116.515 16.1162L116.047 16.5862L116.515 17.0562L115.63 17.945V20.4584L116.515 21.3473L116.047 21.8173L116.515 22.2873L115.63 23.1761V25.6895L116.515 26.5784L116.047 27.0484L116.515 27.5184L115.63 28.4072V30.9206L116.515 31.8095L116.047 32.2795L116.515 32.7494L115.63 33.6383V36.1517L116.515 37.0406L116.047 37.5106L115.163 36.6217H112.663L111.779 37.5106L111.311 37.0406L112.196 36.1517V33.6383L111.311 32.7494L111.779 32.2795L111.311 31.8095L112.196 30.9206V28.4072L111.311 27.5184L111.779 27.0484L111.311 26.5784L112.196 25.6895V23.1761L111.311 22.2873L111.779 21.8173L111.311 21.3473L112.196 20.4584ZM111.779 16.5828L112.663 17.4717H115.163L116.047 16.5828L115.163 15.6939H112.663L111.779 16.5828ZM111.779 21.8173L112.663 22.7062H115.163L116.047 21.8173L115.163 20.9284H112.663L111.779 21.8173ZM111.779 27.0518L112.663 27.9407H115.163L116.047 27.0518L115.163 26.1629H112.663L111.779 27.0518ZM111.779 32.2863L112.663 33.1752H115.163L116.047 32.2863L115.163 31.3974H112.663L111.779 32.2863Z" fill="white"/>
<path d="M127.822 20.4652V17.9519L126.938 17.063L127.405 16.593L126.938 16.123L127.822 15.2341V12.7208L126.938 11.8319L127.405 11.3619L128.289 12.2508H130.789L131.673 11.3619L132.141 11.8319L131.257 12.7208V15.2341L132.141 16.123L131.673 16.593L132.141 17.063L131.257 17.9519V20.4652L132.141 21.3541L131.673 21.8241L132.141 22.2941L131.257 23.183V25.6963L132.141 26.5852L131.673 27.0552L132.141 27.5252L131.257 28.414V30.9274L132.141 31.8163L131.673 32.2863L132.141 32.7563L131.257 33.6451V36.1585L132.141 37.0474L131.673 37.5174L132.141 37.9874L131.257 38.8762V41.3896L132.141 42.2785L131.673 42.7485L132.141 43.2184L131.257 44.1073V46.6207L132.141 47.5096L131.673 47.9796L130.789 47.0907H128.289L127.405 47.9796L126.938 47.5096L127.822 46.6207V44.1073L126.938 43.2184L127.405 42.7485L126.938 42.2785L127.822 41.3896V38.8762L126.938 37.9874L127.405 37.5174L126.938 37.0474L127.822 36.1585V33.6451L126.938 32.7563L127.405 32.2863L126.938 31.8163L127.822 30.9274V28.414L126.938 27.5252L127.405 27.0552L126.938 26.5852L127.822 25.6963V23.183L126.938 22.2941L127.405 21.8241L126.938 21.3541L127.822 20.4652ZM127.405 16.5896L128.289 17.4785H130.789L131.673 16.5896L130.789 15.7007H128.289L127.405 16.5896ZM127.405 21.8241L128.289 22.713H130.789L131.673 21.8241L130.789 20.9352H128.289L127.405 21.8241ZM127.405 27.0586L128.289 27.9475H130.789L131.673 27.0586L130.789 26.1697H128.289L127.405 27.0586ZM127.405 32.2931L128.289 33.182H130.789L131.673 32.2931L130.789 31.4042H128.289L127.405 32.2931ZM127.405 37.5276L128.289 38.4165H130.789L131.673 37.5276L130.789 36.6387H128.289L127.405 37.5276ZM127.405 42.7621L128.289 43.651H130.789L131.673 42.7621L130.789 41.8732H128.289L127.405 42.7621ZM133.028 20.4584V17.945L132.144 17.0562L132.612 16.5862L133.496 17.4751H135.996L136.88 16.5862L137.347 17.0562L136.463 17.945V20.4584L137.347 21.3473L136.88 21.8173L135.996 20.9284H133.496L132.612 21.8173L132.144 21.3473L133.028 20.4584ZM133.028 36.1653V33.6519L132.144 32.7631L132.612 32.2931L133.496 33.182H135.996L136.88 32.2931L137.347 32.7631L136.463 33.6519V36.1653L137.347 37.0542L136.88 37.5242L135.996 36.6353H133.496L132.612 37.5242L132.144 37.0542L133.028 36.1653ZM138.235 15.2239V12.7105L137.351 11.8217L137.818 11.3517L138.702 12.2406H141.202L142.086 11.3517L142.554 11.8217L141.67 12.7105V15.2239L142.554 16.1128L142.086 16.5828L141.202 15.6939H138.702L137.818 16.5828L137.351 16.1128L138.235 15.2239ZM138.235 36.1653V33.6519L137.351 32.7631L137.818 32.2931L138.702 33.182H141.202L142.086 32.2931L142.554 32.7631L141.67 33.6519V36.1653L142.554 37.0542L142.086 37.5242L141.202 36.6353H138.702L137.818 37.5242L137.351 37.0542L138.235 36.1653ZM143.441 20.4584V17.945L142.557 17.0562L143.025 16.5862L142.557 16.1162L143.441 15.2273V12.7139L142.557 11.8251L143.025 11.3551L143.909 12.244H146.409L147.293 11.3551L147.76 11.8251L146.876 12.7139V15.2273L147.76 16.1162L147.293 16.5862L147.76 17.0562L146.876 17.945V20.4584L147.76 21.3473L147.293 21.8173L147.76 22.2873L146.876 23.1761V25.6895L147.76 26.5784L147.293 27.0484L147.76 27.5184L146.876 28.4072V30.9206L147.76 31.8095L147.293 32.2795L147.76 32.7494L146.876 33.6383V36.1517L147.76 37.0406L147.293 37.5106L146.409 36.6217H143.909L143.025 37.5106L142.557 37.0406L143.441 36.1517V33.6383L142.557 32.7494L143.025 32.2795L142.557 31.8095L143.441 30.9206V28.4072L142.557 27.5184L143.025 27.0484L142.557 26.5784L143.441 25.6895V23.1761L142.557 22.2873L143.025 21.8173L142.557 21.3473L143.441 20.4584ZM143.025 16.5828L143.909 17.4717H146.409L147.293 16.5828L146.409 15.6939H143.909L143.025 16.5828ZM143.025 21.8173L143.909 22.7062H146.409L147.293 21.8173L146.409 20.9284H143.909L143.025 21.8173ZM143.025 27.0518L143.909 27.9407H146.409L147.293 27.0518L146.409 26.1629H143.909L143.025 27.0518ZM143.025 32.2863L143.909 33.1752H146.409L147.293 32.2863L146.409 31.3974H143.909L143.025 32.2863Z" fill="white"/>
<path d="M159.071 20.4652V17.9518L158.187 17.063L158.654 16.593L158.187 16.123L159.071 15.2341V12.7208L158.187 11.8319L158.654 11.3619L159.539 12.2508H162.038L162.923 11.3619L163.39 11.8319L162.506 12.7208V15.2341L163.39 16.123L162.923 16.593L163.39 17.063L162.506 17.9518V20.4652L163.39 21.3541L162.923 21.8241L163.39 22.2941L162.506 23.1829V25.6963L163.39 26.5852L162.923 27.0552L163.39 27.5252L162.506 28.414V30.9274L163.39 31.8163L162.923 32.2863L163.39 32.7562L162.506 33.6451V36.1585L163.39 37.0474L162.923 37.5174L162.038 36.6285H159.539L158.654 37.5174L158.187 37.0474L159.071 36.1585V33.6451L158.187 32.7562L158.654 32.2863L158.187 31.8163L159.071 30.9274V28.414L158.187 27.5252L158.654 27.0552L158.187 26.5852L159.071 25.6963V23.1829L158.187 22.2941L158.654 21.8241L158.187 21.3541L159.071 20.4652ZM158.654 16.5896L159.539 17.4785H162.038L162.923 16.5896L162.038 15.7007H159.539L158.654 16.5896ZM158.654 21.8241L159.539 22.713H162.038L162.923 21.8241L162.038 20.9352H159.539L158.654 21.8241ZM158.654 27.0586L159.539 27.9475H162.038L162.923 27.0586L162.038 26.1697H159.539L158.654 27.0586ZM158.654 32.2931L159.539 33.182H162.038L162.923 32.2931L162.038 31.4042H159.539L158.654 32.2931ZM164.278 36.1687V33.6553L163.393 32.7665L163.861 32.2965L164.745 33.1854H167.245L168.129 32.2965L168.597 32.7665L167.712 33.6553V36.1687L168.597 37.0576L168.129 37.5276L167.245 36.6387H164.745L163.861 37.5276L163.393 37.0576L164.278 36.1687ZM164.278 46.6411V44.1278L163.393 43.2389L163.861 42.7689L164.745 43.6578H167.245L168.129 42.7689L168.597 43.2389L167.712 44.1278V46.6411L168.597 47.53L168.129 48L167.245 47.1111H164.745L163.861 48L163.393 47.53L164.278 46.6411ZM169.484 30.9342V28.4208L168.6 27.532L169.067 27.062L169.952 27.9509H172.451L173.336 27.062L173.803 27.532L172.919 28.4208V30.9342L173.803 31.8231L173.336 32.2931L172.451 31.4042H169.952L169.067 32.2931L168.6 31.8231L169.484 30.9342ZM169.484 46.6411V44.1278L168.6 43.2389L169.067 42.7689L169.952 43.6578H172.451L173.336 42.7689L173.803 43.2389L172.919 44.1278V46.6411L173.803 47.53L173.336 48L172.451 47.1111H169.952L169.067 48L168.6 47.53L169.484 46.6411ZM174.691 20.4618V17.9484L173.806 17.0596L174.274 16.5896L173.806 16.1196L174.691 15.2307V12.7173L173.806 11.8285L174.274 11.3585L175.158 12.2474H177.658L178.542 11.3585L179.01 11.8285L178.125 12.7173V15.2307L179.01 16.1196L178.542 16.5896L179.01 17.0596L178.125 17.9484V20.4618L179.01 21.3507L178.542 21.8207L179.01 22.2907L178.125 23.1795V25.6929L179.01 26.5818L178.542 27.0518L179.01 27.5218L178.125 28.4106V30.924L179.01 31.8129L178.542 32.2829L179.01 32.7528L178.125 33.6417V36.1551L179.01 37.044L178.542 37.514L179.01 37.9839L178.125 38.8728V41.3862L179.01 42.2751L178.542 42.745L177.658 41.8562H175.158L174.274 42.745L173.806 42.2751L174.691 41.3862V38.8728L173.806 37.9839L174.274 37.514L173.806 37.044L174.691 36.1551V33.6417L173.806 32.7528L174.274 32.2829L173.806 31.8129L174.691 30.924V28.4106L173.806 27.5218L174.274 27.0518L173.806 26.5818L174.691 25.6929V23.1795L173.806 22.2907L174.274 21.8207L173.806 21.3507L174.691 20.4618ZM174.274 16.5862L175.158 17.4751H177.658L178.542 16.5862L177.658 15.6973H175.158L174.274 16.5862ZM174.274 21.8207L175.158 22.7096H177.658L178.542 21.8207L177.658 20.9318H175.158L174.274 21.8207ZM174.274 27.0552L175.158 27.9441H177.658L178.542 27.0552L177.658 26.1663H175.158L174.274 27.0552ZM174.274 32.2897L175.158 33.1786H177.658L178.542 32.2897L177.658 31.4008H175.158L174.274 32.2897ZM174.274 37.5242L175.158 38.413H177.658L178.542 37.5242L177.658 36.6353H175.158L174.274 37.5242Z" fill="white"/>
<path d="M0.884123 64.1101V61.5968L0 60.7079L0.467467 60.2379L0 59.7679L0.884123 58.879V56.3657L0 55.4768L0.467467 55.0068L1.35159 55.8957H3.85152L4.73565 55.0068L5.20312 55.4768L4.31899 56.3657V58.879L5.20312 59.7679L4.73565 60.2379L5.20312 60.7079L4.31899 61.5968V64.1101L5.20312 64.999L4.73565 65.469L5.20312 65.939L4.31899 66.8279V69.3412L5.20312 70.2301L4.73565 70.7001L5.20312 71.1701L4.31899 72.059V74.5723L5.20312 75.4612L4.73565 75.9312L5.20312 76.4012L4.31899 77.29V79.8034L5.20312 80.6923L4.73565 81.1623L5.20312 81.6323L4.31899 82.5211V85.0345L5.20312 85.9234L4.73565 86.3934L5.20312 86.8634L4.31899 87.7522V90.2656L5.20312 91.1545L4.73565 91.6245L3.85152 90.7356H1.35498L0.470855 91.6245L0.00338744 91.1545L0.887511 90.2656V87.7522L0.00338744 86.8634L0.470855 86.3934L0.00338744 85.9234L0.887511 85.0345V82.5211L0.00338744 81.6323L0.470855 81.1623L0.00338744 80.6923L0.887511 79.8034V77.29L0.00338744 76.4012L0.470855 75.9312L0.00338744 75.4612L0.887511 74.5723V72.059L0.00338744 71.1701L0.470855 70.7001L0.00338744 70.2301L0.887511 69.3412V66.8279L0.00338744 65.939L0.470855 65.469L0.00338744 64.999L0.887511 64.1101H0.884123ZM0.467467 60.2345L1.35159 61.1234H3.85152L4.73565 60.2345L3.85152 59.3456H1.35498L0.470855 60.2345H0.467467ZM0.467467 65.469L1.35159 66.3579H3.85152L4.73565 65.469L3.85152 64.5801H1.35498L0.470855 65.469H0.467467ZM0.467467 70.7035L1.35159 71.5924H3.85152L4.73565 70.7035L3.85152 69.8146H1.35498L0.470855 70.7035H0.467467ZM0.467467 75.938L1.35159 76.8269H3.85152L4.73565 75.938L3.85152 75.0491H1.35498L0.470855 75.938H0.467467ZM0.467467 81.1725L1.35159 82.0614H3.85152L4.73565 81.1725L3.85152 80.2836H1.35498L0.470855 81.1725H0.467467ZM0.467467 86.407L1.35159 87.2959H3.85152L4.73565 86.407L3.85152 85.5181H1.35498L0.470855 86.407H0.467467ZM6.09063 74.5757V72.0624L5.2065 71.1735L5.67397 70.7035L6.55809 71.5924H9.05803L9.94215 70.7035L10.4096 71.1735L9.5255 72.0624V74.5757L10.4096 75.4646L9.94215 75.9346L9.05803 75.0457H6.55809L5.67397 75.9346L5.2065 75.4646L6.09063 74.5757ZM11.2971 74.5757V72.0624L10.413 71.1735L10.8805 70.7035L11.7646 71.5924H14.2645L15.1487 70.7035L15.6161 71.1735L14.732 72.0624V74.5757L15.6161 75.4646L15.1487 75.9346L14.2645 75.0457H11.7646L10.8805 75.9346L10.413 75.4646L11.2971 74.5757ZM16.5036 74.5757V72.0624L15.6195 71.1735L16.087 70.7035L16.9711 71.5924H19.471L20.3552 70.7035L20.8226 71.1735L19.9385 72.0624V74.5757L20.8226 75.4646L20.3552 75.9346L19.471 75.0457H16.9711L16.087 75.9346L15.6195 75.4646L16.5036 74.5757ZM21.7101 64.1033V61.59L20.826 60.7011L21.2935 60.2311L20.826 59.7611L21.7101 58.8722V56.3589L20.826 55.47L21.2935 55L22.1776 55.8889H24.6775L25.5617 55L26.0291 55.47L25.145 56.3589V58.8722L26.0291 59.7611L25.5617 60.2311L26.0291 60.7011L25.145 61.59V64.1033L26.0291 64.9922L25.5617 65.4622L26.0291 65.9322L25.145 66.821V69.3344L26.0291 70.2233L25.5617 70.6933L26.0291 71.1633L25.145 72.0521V74.5655L26.0291 75.4544L25.5617 75.9244L26.0291 76.3944L25.145 77.2832V79.7966L26.0291 80.6855L25.5617 81.1555L26.0291 81.6255L25.145 82.5143V85.0277L26.0291 85.9166L25.5617 86.3866L26.0291 86.8565L25.145 87.7454V90.2588L26.0291 91.1477L25.5617 91.6177L24.6775 90.7288H22.1776L21.2935 91.6177L20.826 91.1477L21.7101 90.2588V87.7454L20.826 86.8565L21.2935 86.3866L20.826 85.9166L21.7101 85.0277V82.5143L20.826 81.6255L21.2935 81.1555L20.826 80.6855L21.7101 79.7966V77.2832L20.826 76.3944L21.2935 75.9244L20.826 75.4544L21.7101 74.5655V72.0521L20.826 71.1633L21.2935 70.6933L20.826 70.2233L21.7101 69.3344V66.821L20.826 65.9322L21.2935 65.4622L20.826 64.9922L21.7101 64.1033ZM21.2935 60.2277L22.1776 61.1166H24.6775L25.5617 60.2277L24.6775 59.3388H22.1776L21.2935 60.2277ZM21.2935 65.4622L22.1776 66.3511H24.6775L25.5617 65.4622L24.6775 64.5733H22.1776L21.2935 65.4622ZM21.2935 70.6967L22.1776 71.5856H24.6775L25.5617 70.6967L24.6775 69.8078H22.1776L21.2935 70.6967ZM21.2935 75.9312L22.1776 76.8201H24.6775L25.5617 75.9312L24.6775 75.0423H22.1776L21.2935 75.9312ZM21.2935 81.1657L22.1776 82.0546H24.6775L25.5617 81.1657L24.6775 80.2768H22.1776L21.2935 81.1657ZM21.2935 86.4002L22.1776 87.2891H24.6775L25.5617 86.4002L24.6775 85.5113H22.1776L21.2935 86.4002Z" fill="white"/>
<path d="M37.3398 79.817V77.3037L36.4557 76.4148L36.9232 75.9448L36.4557 75.4748L37.3398 74.5859V72.0726L36.4557 71.1837L36.9232 70.7137L36.4557 70.2437L37.3398 69.3549V66.8415L36.4557 65.9526L36.9232 65.4826L37.8073 66.3715H40.3072L41.1913 65.4826L41.6588 65.9526L40.7747 66.8415V69.3549L41.6588 70.2437L41.1913 70.7137L41.6588 71.1837L40.7747 72.0726V74.5859L41.6588 75.4748L41.1913 75.9448L41.6588 76.4148L40.7747 77.3037V79.817L41.6588 80.7059L41.1913 81.1759L41.6588 81.6459L40.7747 82.5348V85.0481L41.6588 85.937L41.1913 86.407L41.6588 86.877L40.7747 87.7658V90.2792L41.6588 91.1681L41.1913 91.6381L40.3072 90.7492H37.8073L36.9232 91.6381L36.4557 91.1681L37.3398 90.2792V87.7658L36.4557 86.877L36.9232 86.407L36.4557 85.937L37.3398 85.0481V82.5348L36.4557 81.6459L36.9232 81.1759L36.4557 80.7059L37.3398 79.817ZM41.1947 70.7069L40.3106 69.818H37.8107L36.9265 70.7069L37.8107 71.5958H40.3106L41.1947 70.7069ZM36.9232 75.9414L37.8073 76.8303H40.3072L41.1913 75.9414L40.3072 75.0525H37.8073L36.9232 75.9414ZM36.9232 81.1759L37.8073 82.0648H40.3072L41.1913 81.1759L40.3072 80.287H37.8073L36.9232 81.1759ZM36.9232 86.4104L37.8073 87.2993H40.3072L41.1913 86.4104L40.3072 85.5215H37.8073L36.9232 86.4104ZM42.5463 69.3412V66.8279L41.6622 65.939L42.1297 65.469L43.0138 66.3579H45.5137L46.3978 65.469L46.8653 65.939L45.9812 66.8279V69.3412L46.8653 70.2301L46.3978 70.7001L45.5137 69.8112H43.0138L42.1297 70.7001L41.6622 70.2301L42.5463 69.3412ZM42.5463 90.2826V87.7693L41.6622 86.8804L42.1297 86.4104L43.0138 87.2993H45.5137L46.3978 86.4104L46.8653 86.8804L45.9812 87.7693V90.2826L46.8653 91.1715L46.3978 91.6415L45.5137 90.7526H43.0138L42.1297 91.6415L41.6622 91.1715L42.5463 90.2826ZM47.7528 69.3412V66.8279L46.8687 65.939L47.3362 65.469L48.2203 66.3579H50.7202L51.6043 65.469L52.0718 65.939L51.1877 66.8279V69.3412L52.0718 70.2301L51.6043 70.7001L50.7202 69.8112H48.2203L47.3362 70.7001L46.8687 70.2301L47.7528 69.3412ZM47.7528 90.2826V87.7693L46.8687 86.8804L47.3362 86.4104L48.2203 87.2993H50.7202L51.6043 86.4104L52.0718 86.8804L51.1877 87.7693V90.2826L52.0718 91.1715L51.6043 91.6415L50.7202 90.7526H48.2203L47.3362 91.6415L46.8687 91.1715L47.7528 90.2826ZM52.9593 79.8102V77.2968L52.0752 76.408L52.5427 75.938L52.0752 75.468L52.9593 74.5791V72.0658L52.0752 71.1769L52.5427 70.7069L52.0752 70.2369L52.9593 69.348V66.8347L52.0752 65.9458L52.5427 65.4758L53.4268 66.3647H55.9267L56.8108 65.4758L57.2783 65.9458L56.3942 66.8347V69.348L57.2783 70.2369L56.8108 70.7069L57.2783 71.1769L56.3942 72.0658V74.5791L57.2783 75.468L56.8108 75.938L57.2783 76.408L56.3942 77.2968V79.8102L57.2783 80.6991L56.8108 81.1691L57.2783 81.6391L56.3942 82.5279V85.0413L57.2783 85.9302L56.8108 86.4002L57.2783 86.8702L56.3942 87.759V90.2724L57.2783 91.1613L56.8108 91.6313L55.9267 90.7424H53.4268L52.5427 91.6313L52.0752 91.1613L52.9593 90.2724V87.759L52.0752 86.8702L52.5427 86.4002L52.0752 85.9302L52.9593 85.0413V82.5279L52.0752 81.6391L52.5427 81.1691L52.0752 80.6991L52.9593 79.8102ZM56.8142 70.7001L55.9301 69.8112H53.4302L52.546 70.7001L53.4302 71.589H55.9301L56.8142 70.7001ZM52.5427 75.9346L53.4268 76.8235H55.9267L56.8108 75.9346L55.9267 75.0457H53.4268L52.5427 75.9346ZM52.5427 81.1691L53.4268 82.058H55.9267L56.8108 81.1691L55.9267 80.2802H53.4268L52.5427 81.1691ZM52.5427 86.4036L53.4268 87.2925H55.9267L56.8108 86.4036L55.9267 85.5147H53.4268L52.5427 86.4036Z" fill="white"/>
<path d="M68.5856 74.5825V72.0692L67.7015 71.1803L68.1689 70.7103L67.7015 70.2403L68.5856 69.3514V66.8381L67.7015 65.9492L68.1689 65.4792L67.7015 65.0092L68.5856 64.1204V61.607L67.7015 60.7181L68.1689 60.2481L67.7015 59.7781L68.5856 58.8893V56.3759L67.7015 55.487L68.1689 55.017L69.0531 55.9059H71.553L72.4371 55.017L72.9046 55.487L72.0205 56.3759V58.8893L72.9046 59.7781L72.4371 60.2481L72.9046 60.7181L72.0205 61.607V64.1204L72.9046 65.0092L72.4371 65.4792L72.9046 65.9492L72.0205 66.8381V69.3514L72.9046 70.2403L72.4371 70.7103L72.9046 71.1803L72.0205 72.0692V74.5825L72.9046 75.4714L72.4371 75.9414L72.9046 76.4114L72.0205 77.3003V79.8136L72.9046 80.7025L72.4371 81.1725L72.9046 81.6425L72.0205 82.5314V85.0447L72.9046 85.9336L72.4371 86.4036L72.9046 86.8736L72.0205 87.7625V90.2758L72.9046 91.1647L72.4371 91.6347L71.553 90.7458H69.0531L68.1689 91.6347L67.7015 91.1647L68.5856 90.2758V87.7625L67.7015 86.8736L68.1689 86.4036L67.7015 85.9336L68.5856 85.0447V82.5314L67.7015 81.6425L68.1689 81.1725L67.7015 80.7025L68.5856 79.8136V77.3003L67.7015 76.4114L68.1689 75.9414L67.7015 75.4714L68.5856 74.5825ZM72.4405 60.2379L71.5564 59.349H69.0565L68.1723 60.2379L69.0565 61.1268H71.5564L72.4405 60.2379ZM72.4405 65.4724L71.5564 64.5835H69.0565L68.1723 65.4724L69.0565 66.3613H71.5564L72.4405 65.4724ZM68.1689 70.7069L69.0531 71.5958H71.553L72.4371 70.7069L71.553 69.818H69.0531L68.1689 70.7069ZM68.1689 75.9414L69.0531 76.8303H71.553L72.4371 75.9414L71.553 75.0525H69.0531L68.1689 75.9414ZM68.1689 81.1759L69.0531 82.0648H71.553L72.4371 81.1759L71.553 80.287H69.0531L68.1689 81.1759ZM68.1689 86.4104L69.0531 87.2993H71.553L72.4371 86.4104L71.553 85.5215H69.0531L68.1689 86.4104Z" fill="white"/>
<path d="M84.2085 58.8757V56.3623L83.3244 55.4734L83.7918 55.0034L84.676 55.8923H87.1759L88.06 55.0034L88.5275 55.4734L87.6434 56.3623V58.8757L88.5275 59.7645L88.06 60.2345L87.1759 59.3456H84.676L83.7918 60.2345L83.3244 59.7645L84.2085 58.8757ZM84.2085 74.5826V72.0692L83.3244 71.1803L83.7918 70.7103L83.3244 70.2403L84.2085 69.3515V66.8381L83.3244 65.9492L83.7918 65.4792L84.676 66.3681H87.1759L88.06 65.4792L88.5275 65.9492L87.6434 66.8381V69.3515L88.5275 70.2403L88.06 70.7103L88.5275 71.1803L87.6434 72.0692V74.5826L88.5275 75.4714L88.06 75.9414L88.5275 76.4114L87.6434 77.3003V79.8136L88.5275 80.7025L88.06 81.1725L88.5275 81.6425L87.6434 82.5314V85.0447L88.5275 85.9336L88.06 86.4036L88.5275 86.8736L87.6434 87.7625V90.2758L88.5275 91.1647L88.06 91.6347L87.1759 90.7458H84.676L83.7918 91.6347L83.3244 91.1647L84.2085 90.2758V87.7625L83.3244 86.8736L83.7918 86.4036L83.3244 85.9336L84.2085 85.0447V82.5314L83.3244 81.6425L83.7918 81.1725L83.3244 80.7025L84.2085 79.8136V77.3003L83.3244 76.4114L83.7918 75.9414L83.3244 75.4714L84.2085 74.5826ZM83.7918 70.7069L84.676 71.5958H87.1759L88.06 70.7069L87.1759 69.818H84.676L83.7918 70.7069ZM83.7918 75.9414L84.676 76.8303H87.1759L88.06 75.9414L87.1759 75.0525H84.676L83.7918 75.9414ZM83.7918 81.1759L84.676 82.0648H87.1759L88.06 81.1759L87.1759 80.287H84.676L83.7918 81.1759ZM83.7918 86.4104L84.676 87.2993H87.1759L88.06 86.4104L87.1759 85.5215H84.676L83.7918 86.4104Z" fill="white"/>
<path d="M99.8314 69.3481V66.8347L98.9473 65.9458L99.4147 65.4758L100.299 66.3647H102.799L103.683 65.4758L104.15 65.9458L103.266 66.8347V69.3481L104.15 70.2369L103.683 70.7069L104.15 71.1769L103.266 72.0658V74.5792L104.15 75.468L103.683 75.938L104.15 76.408L103.266 77.2969V79.8103L104.15 80.6991L103.683 81.1691L104.15 81.6391L103.266 82.528V85.0413L104.15 85.9302L103.683 86.4002L104.15 86.8702L103.266 87.7591V90.2724L104.15 91.1613L103.683 91.6313L102.799 90.7424H100.299L99.4147 91.6313L98.9473 91.1613L99.8314 90.2724V87.7591L98.9473 86.8702L99.4147 86.4002L98.9473 85.9302L99.8314 85.0413V82.528L98.9473 81.6391L99.4147 81.1691L98.9473 80.6991L99.8314 79.8103V77.2969L98.9473 76.408L99.4147 75.938L98.9473 75.468L99.8314 74.5792V72.0658L98.9473 71.1769L99.4147 70.7069L98.9473 70.2369L99.8314 69.3481ZM103.686 70.7103L102.802 69.8215H100.302L99.4181 70.7103L100.302 71.5992H102.802L103.686 70.7103ZM103.686 75.9448L102.802 75.0559H100.302L99.4181 75.9448L100.302 76.8337H102.802L103.686 75.9448ZM103.686 81.1793L102.802 80.2905H100.302L99.4181 81.1793L100.302 82.0682H102.802L103.686 81.1793ZM103.686 86.4138L102.802 85.5249H100.302L99.4181 86.4138L100.302 87.3027H102.802L103.686 86.4138ZM105.041 69.3447V66.8313L104.157 65.9424L104.625 65.4724L105.509 66.3613H108.009L108.893 65.4724L109.36 65.9424L108.476 66.8313V69.3447L109.36 70.2335L108.893 70.7035L108.009 69.8146H105.509L104.625 70.7035L104.157 70.2335L105.041 69.3447ZM105.041 90.2861V87.7727L104.157 86.8838L104.625 86.4138L105.509 87.3027H108.009L108.893 86.4138L109.36 86.8838L108.476 87.7727V90.2861L109.36 91.1749L108.893 91.6449L108.009 90.756H105.509L104.625 91.6449L104.157 91.1749L105.041 90.2861ZM110.248 69.3447V66.8313L109.364 65.9424L109.831 65.4724L110.715 66.3613H113.215L114.099 65.4724L114.567 65.9424L113.683 66.8313V69.3447L114.567 70.2335L114.099 70.7035L113.215 69.8146H110.715L109.831 70.7035L109.364 70.2335L110.248 69.3447ZM110.248 85.0516V82.5382L109.364 81.6493L109.831 81.1793L110.715 82.0682H113.215L114.099 81.1793L114.567 81.6493L113.683 82.5382V85.0516L114.567 85.9404L114.099 86.4104L113.215 85.5215H110.715L109.831 86.4104L109.364 85.9404L110.248 85.0516ZM115.454 74.5792V72.0658L114.57 71.1769L115.038 70.7069L114.57 70.2369L115.454 69.3481V66.8347L114.57 65.9458L115.038 65.4758L114.57 65.0058L115.454 64.117V61.6036L114.57 60.7147L115.038 60.2447L114.57 59.7748L115.454 58.8859V56.3725L114.57 55.4836L115.038 55.0136L115.922 55.9025H118.422L119.306 55.0136L119.773 55.4836L118.889 56.3725V58.8859L119.773 59.7748L119.306 60.2447L119.773 60.7147L118.889 61.6036V64.117L119.773 65.0058L119.306 65.4758L119.773 65.9458L118.889 66.8347V69.3481L119.773 70.2369L119.306 70.7069L119.773 71.1769L118.889 72.0658V74.5792L119.773 75.468L119.306 75.938L119.773 76.408L118.889 77.2969V79.8103L119.773 80.6991L119.306 81.1691L119.773 81.6391L118.889 82.528V85.0413L119.773 85.9302L119.306 86.4002L119.773 86.8702L118.889 87.7591V90.2724L119.773 91.1613L119.306 91.6313L118.422 90.7424H115.922L115.038 91.6313L114.57 91.1613L115.454 90.2724V87.7591L114.57 86.8702L115.038 86.4002L114.57 85.9302L115.454 85.0413V82.528L114.57 81.6391L115.038 81.1691L114.57 80.6991L115.454 79.8103V77.2969L114.57 76.408L115.038 75.938L114.57 75.468L115.454 74.5792ZM119.309 60.2345L118.425 59.3456H115.925L115.041 60.2345L115.925 61.1234H118.425L119.309 60.2345ZM119.309 65.469L118.425 64.5801H115.925L115.041 65.469L115.925 66.3579H118.425L119.309 65.469ZM115.038 70.7035L115.922 71.5924H118.422L119.306 70.7035L118.422 69.8146H115.922L115.038 70.7035ZM115.038 75.938L115.922 76.8269H118.422L119.306 75.938L118.422 75.0491H115.922L115.038 75.938ZM115.038 81.1725L115.922 82.0614H118.422L119.306 81.1725L118.422 80.2836H115.922L115.038 81.1725ZM115.038 86.407L115.922 87.2959H118.422L119.306 86.407L118.422 85.5181H115.922L115.038 86.407Z" fill="white"/>
<path d="M131.077 69.348V66.8347L130.193 65.9458L130.661 65.4758L131.545 66.3647H134.045L134.929 65.4758L135.396 65.9458L134.512 66.8347V69.348L135.396 70.2369L134.929 70.7069L134.045 69.818H131.545L130.661 70.7069L130.193 70.2369L131.077 69.348ZM131.077 79.8204V77.3071L130.193 76.4182L130.661 75.9482L131.545 76.8371H134.045L134.929 75.9482L135.396 76.4182L134.512 77.3071V79.8204L135.396 80.7093L134.929 81.1793L135.396 81.6493L134.512 82.5382V85.0515L135.396 85.9404L134.929 86.4104L135.396 86.8804L134.512 87.7692V90.2826L135.396 91.1715L134.929 91.6415L134.045 90.7526H131.545L130.661 91.6415L130.193 91.1715L131.077 90.2826V87.7692L130.193 86.8804L130.661 86.4104L130.193 85.9404L131.077 85.0515V82.5382L130.193 81.6493L130.661 81.1793L130.193 80.7093L131.077 79.8204ZM134.932 81.1827L134.048 80.2938H131.548L130.664 81.1827L131.548 82.0716H134.048L134.932 81.1827ZM134.932 86.4172L134.048 85.5283H131.548L130.664 86.4172L131.548 87.3061H134.048L134.932 86.4172ZM136.287 69.348V66.8347L135.403 65.9458L135.87 65.4758L136.755 66.3647H139.254L140.139 65.4758L140.606 65.9458L139.722 66.8347V69.348L140.606 70.2369L140.139 70.7069L139.254 69.818H136.755L135.87 70.7069L135.403 70.2369L136.287 69.348ZM136.287 79.8204V77.3071L135.403 76.4182L135.87 75.9482L136.755 76.8371H139.254L140.139 75.9482L140.606 76.4182L139.722 77.3071V79.8204L140.606 80.7093L140.139 81.1793L139.254 80.2904H136.755L135.87 81.1793L135.403 80.7093L136.287 79.8204ZM136.287 90.2928V87.7795L135.403 86.8906L135.87 86.4206L136.755 87.3095H139.254L140.139 86.4206L140.606 86.8906L139.722 87.7795V90.2928L140.606 91.1817L140.139 91.6517L139.254 90.7628H136.755L135.87 91.6517L135.403 91.1817L136.287 90.2928ZM141.494 69.3514V66.8381L140.609 65.9492L141.077 65.4792L141.961 66.3681H144.461L145.345 65.4792L145.813 65.9492L144.928 66.8381V69.3514L145.813 70.2403L145.345 70.7103L144.461 69.8214H141.961L141.077 70.7103L140.609 70.2403L141.494 69.3514ZM141.494 79.8238V77.3105L140.609 76.4216L141.077 75.9516L141.961 76.8405H144.461L145.345 75.9516L145.813 76.4216L144.928 77.3105V79.8238L145.813 80.7127L145.345 81.1827L144.461 80.2938H141.961L141.077 81.1827L140.609 80.7127L141.494 79.8238ZM141.494 90.2962V87.7829L140.609 86.894L141.077 86.424L141.961 87.3129H144.461L145.345 86.424L145.813 86.894L144.928 87.7829V90.2962L145.813 91.1851L145.345 91.6551L144.461 90.7662H141.961L141.077 91.6551L140.609 91.1851L141.494 90.2962ZM146.7 74.5893V72.076L145.816 71.1871L146.283 70.7171L145.816 70.2471L146.7 69.3582V66.8449L145.816 65.956L146.283 65.486L147.168 66.3749H149.667L150.552 65.486L151.019 65.956L150.135 66.8449V69.3582L151.019 70.2471L150.552 70.7171L151.019 71.1871L150.135 72.076V74.5893L151.019 75.4782L150.552 75.9482L151.019 76.4182L150.135 77.3071V79.8204L151.019 80.7093L150.552 81.1793L151.019 81.6493L150.135 82.5382V85.0515L151.019 85.9404L150.552 86.4104L151.019 86.8804L150.135 87.7692V90.2826L151.019 91.1715L150.552 91.6415L149.667 90.7526H147.168L146.283 91.6415L145.816 91.1715L146.7 90.2826V87.7692L145.816 86.8804L146.283 86.4104L145.816 85.9404L146.7 85.0515V82.5382L145.816 81.6493L146.283 81.1793L145.816 80.7093L146.7 79.8204V77.3071L145.816 76.4182L146.283 75.9482L145.816 75.4782L146.7 74.5893ZM146.283 70.7137L147.168 71.6026H149.667L150.552 70.7137L149.667 69.8248H147.168L146.283 70.7137ZM146.283 75.9482L147.168 76.8371H149.667L150.552 75.9482L149.667 75.0593H147.168L146.283 75.9482ZM146.283 81.1827L147.168 82.0716H149.667L150.552 81.1827L149.667 80.2938H147.168L146.283 81.1827ZM146.283 86.4172L147.168 87.3061H149.667L150.552 86.4172L149.667 85.5283H147.168L146.283 86.4172Z" fill="white"/>
<path d="M162.326 74.5825V72.0692L161.442 71.1803L161.91 70.7103L161.442 70.2403L162.326 69.3514V66.8381L161.442 65.9492L161.91 65.4792L162.794 66.3681H165.294L166.178 65.4792L166.645 65.9492L165.761 66.8381V69.3514L166.645 70.2403L166.178 70.7103L166.645 71.1803L165.761 72.0692V74.5825L166.645 75.4714L166.178 75.9414L166.645 76.4114L165.761 77.3003V79.8136L166.645 80.7025L166.178 81.1725L166.645 81.6425L165.761 82.5313V85.0447L166.645 85.9336L166.178 86.4036L166.645 86.8736L165.761 87.7624V90.2758L166.645 91.1647L166.178 91.6347L165.294 90.7458H162.794L161.91 91.6347L161.442 91.1647L162.326 90.2758V87.7624L161.442 86.8736L161.91 86.4036L161.442 85.9336L162.326 85.0447V82.5313L161.442 81.6425L161.91 81.1725L161.442 80.7025L162.326 79.8136V77.3003L161.442 76.4114L161.91 75.9414L161.442 75.4714L162.326 74.5825ZM161.91 70.7069L162.794 71.5958H165.294L166.178 70.7069L165.294 69.818H162.794L161.91 70.7069ZM161.91 75.9414L162.794 76.8303H165.294L166.178 75.9414L165.294 75.0525H162.794L161.91 75.9414ZM161.91 81.1759L162.794 82.0648H165.294L166.178 81.1759L165.294 80.287H162.794L161.91 81.1759ZM161.91 86.4104L162.794 87.2993H165.294L166.178 86.4104L165.294 85.5215H162.794L161.91 86.4104ZM167.533 90.286V87.7727L166.649 86.8838L167.116 86.4138L168 87.3027H170.5L171.384 86.4138L171.852 86.8838L170.968 87.7727V90.286L171.852 91.1749L171.384 91.6449L170.5 90.756H168L167.116 91.6449L166.649 91.1749L167.533 90.286ZM167.533 100.758V98.2451L166.649 97.3562L167.116 96.8862L168 97.7751H170.5L171.384 96.8862L171.852 97.3562L170.968 98.2451V100.758L171.852 101.647L171.384 102.117L170.5 101.228H168L167.116 102.117L166.649 101.647L167.533 100.758ZM172.739 85.0515V82.5382L171.855 81.6493L172.323 81.1793L173.207 82.0682H175.707L176.591 81.1793L177.058 81.6493L176.174 82.5382V85.0515L177.058 85.9404L176.591 86.4104L175.707 85.5215H173.207L172.323 86.4104L171.855 85.9404L172.739 85.0515ZM172.739 100.758V98.2451L171.855 97.3562L172.323 96.8862L173.207 97.7751H175.707L176.591 96.8862L177.058 97.3562L176.174 98.2451V100.758L177.058 101.647L176.591 102.117L175.707 101.228H173.207L172.323 102.117L171.855 101.647L172.739 100.758ZM177.946 74.5791V72.0657L177.062 71.1769L177.529 70.7069L177.062 70.2369L177.946 69.348V66.8347L177.062 65.9458L177.529 65.4758L178.413 66.3647H180.913L181.797 65.4758L182.265 65.9458L181.381 66.8347V69.348L182.265 70.2369L181.797 70.7069L182.265 71.1769L181.381 72.0657V74.5791L182.265 75.468L181.797 75.938L182.265 76.408L181.381 77.2968V79.8102L182.265 80.6991L181.797 81.1691L182.265 81.6391L181.381 82.5279V85.0413L182.265 85.9302L181.797 86.4002L182.265 86.8702L181.381 87.759V90.2724L182.265 91.1613L181.797 91.6313L182.265 92.1012L181.381 92.9901V95.5035L182.265 96.3924L181.797 96.8624L180.913 95.9735H178.413L177.529 96.8624L177.062 96.3924L177.946 95.5035V92.9901L177.062 92.1012L177.529 91.6313L177.062 91.1613L177.946 90.2724V87.759L177.062 86.8702L177.529 86.4002L177.062 85.9302L177.946 85.0413V82.5279L177.062 81.6391L177.529 81.1691L177.062 80.6991L177.946 79.8102V77.2968L177.062 76.408L177.529 75.938L177.062 75.468L177.946 74.5791ZM177.529 70.7035L178.413 71.5924H180.913L181.797 70.7035L180.913 69.8146H178.413L177.529 70.7035ZM177.529 75.938L178.413 76.8269H180.913L181.797 75.938L180.913 75.0491H178.413L177.529 75.938ZM177.529 81.1725L178.413 82.0614H180.913L181.797 81.1725L180.913 80.2836H178.413L177.529 81.1725ZM177.529 86.407L178.413 87.2959H180.913L181.797 86.407L180.913 85.5181H178.413L177.529 86.407ZM177.529 91.6415L178.413 92.5304H180.913L181.797 91.6415L180.913 90.7526H178.413L177.529 91.6415Z" fill="white"/>
<path d="M192.268 74.5825V72.0692L191.384 71.1803L191.851 70.7103L192.735 71.5992H195.235L196.12 70.7103L196.587 71.1803L195.703 72.0692V74.5825L196.587 75.4714L196.12 75.9414L195.235 75.0525H192.735L191.851 75.9414L191.384 75.4714L192.268 74.5825ZM192.268 90.2894V87.7761L191.384 86.8872L191.851 86.4172L192.735 87.3061H195.235L196.12 86.4172L196.587 86.8872L195.703 87.7761V90.2894L196.587 91.1783L196.12 91.6483L195.235 90.7594H192.735L191.851 91.6483L191.384 91.1783L192.268 90.2894ZM197.475 69.348V66.8347L196.59 65.9458L197.058 65.4758L197.942 66.3647H200.442L201.326 65.4758L201.793 65.9458L200.909 66.8347V69.348L201.793 70.2369L201.326 70.7069L200.442 69.818H197.942L197.058 70.7069L196.59 70.2369L197.475 69.348ZM197.475 79.8204V77.3071L196.59 76.4182L197.058 75.9482L197.942 76.8371H200.442L201.326 75.9482L201.793 76.4182L200.909 77.3071V79.8204L201.793 80.7093L201.326 81.1793L200.442 80.2904H197.942L197.058 81.1793L196.59 80.7093L197.475 79.8204ZM197.475 90.2928V87.7795L196.59 86.8906L197.058 86.4206L197.942 87.3095H200.442L201.326 86.4206L201.793 86.8906L200.909 87.7795V90.2928L201.793 91.1817L201.326 91.6517L200.442 90.7628H197.942L197.058 91.6517L196.59 91.1817L197.475 90.2928ZM202.681 69.3514V66.8381L201.797 65.9492L202.264 65.4792L203.148 66.3681H205.648L206.533 65.4792L207 65.9492L206.116 66.8381V69.3514L207 70.2403L206.533 70.7103L205.648 69.8214H203.148L202.264 70.7103L201.797 70.2403L202.681 69.3514ZM202.681 85.0583V82.545L201.797 81.6561L202.264 81.1861L203.148 82.075H205.648L206.533 81.1861L207 81.6561L206.116 82.545V85.0583L207 85.9472L206.533 86.4172L205.648 85.5283H203.148L202.264 86.4172L201.797 85.9472L202.681 85.0583Z" fill="white"/>
</svg>
