<svg width="44" height="44" viewBox="0 0 44 44" fill="none" xmlns="http://www.w3.org/2000/svg">
<path d="M43.6592 21.3963L39.7483 19.0434C39.4868 18.8861 39.1536 18.9161 38.9243 19.1177L36.4449 21.296H34.1638L29.3635 18.5506L31.2921 17.4342L35.859 18.2849C35.9023 18.2929 35.9455 18.2968 35.988 18.2968C36.3196 18.2968 36.6147 18.0601 36.6775 17.7213C36.7483 17.339 36.4967 16.9717 36.1155 16.9006L33.1637 16.3508L36.6347 14.3417C36.9705 14.1473 37.0855 13.7168 36.8916 13.3801C36.6978 13.0434 36.2683 12.928 35.9325 13.1224L32.4616 15.1316L33.4624 12.2939C33.5917 11.9273 33.4002 11.5251 33.0346 11.3955C32.669 11.2658 32.2678 11.458 32.1386 11.8245L30.59 16.215L28.6614 17.3314L28.69 11.7907L29.8306 9.81007L32.9519 8.74655C33.2407 8.64819 33.4331 8.37403 33.428 8.06814L33.351 3.49599C33.3469 3.24877 33.2136 3.02182 33.0001 2.89821C32.7864 2.7746 32.5239 2.77244 32.3082 2.89229L28.3204 5.11159C28.0537 5.26007 27.9131 5.56417 27.9725 5.86415L28.6145 9.10603L27.4739 11.0866L22.7023 13.8818V11.6491L25.7205 8.10925C25.9724 7.81369 25.9378 7.36936 25.643 7.11669C25.3483 6.86412 24.905 6.89894 24.653 7.19441L22.7022 9.4824V5.46412C22.7022 5.07536 22.3878 4.76018 22 4.76018C21.6123 4.76018 21.2979 5.07536 21.2979 5.46412V9.4824L19.3472 7.1945C19.0952 6.89903 18.652 6.86431 18.3572 7.11679C18.0625 7.36945 18.0278 7.81378 18.2797 8.10934L21.2979 11.6492V13.8818L16.5262 11.0867L15.3856 9.10612L16.0276 5.86424C16.0871 5.56427 15.9465 5.26007 15.6798 5.11168L11.6919 2.89239C11.4762 2.77244 11.2137 2.7746 11 2.8983C10.7865 3.02191 10.6532 3.24886 10.6491 3.49609L10.5722 8.06823C10.567 8.37403 10.7594 8.64819 11.0483 8.74664L14.1696 9.81016L15.3102 11.7908L15.3388 17.3314L13.4102 16.2151L11.8616 11.8246C11.7324 11.458 11.3312 11.266 10.9656 11.3956C10.6 11.5252 10.4085 11.9274 10.5377 12.2939L11.5386 15.1317L8.06765 13.1225C7.73175 12.9281 7.30242 13.0435 7.10854 13.3802C6.91466 13.7168 7.02972 14.1474 7.36552 14.3418L10.8365 16.3509L7.88472 16.9007C7.50351 16.9718 7.25187 17.3391 7.32265 17.7214C7.38546 18.0602 7.68045 18.2969 8.01223 18.2969C8.05473 18.2969 8.09798 18.2929 8.14123 18.285L12.7081 17.4343L14.6367 18.5507L9.83627 21.296H7.55519L5.07583 19.1177C4.84647 18.9162 4.51338 18.8862 4.25181 19.0434L0.34086 21.3964C0.129379 21.5236 0 21.7528 0 22C0 22.2472 0.129379 22.4764 0.34086 22.6036L4.25181 24.9564C4.36369 25.0237 4.48857 25.0568 4.61289 25.0568C4.77925 25.0568 4.94449 24.9976 5.07574 24.8823L7.55519 22.7039H9.83627L14.6366 25.4494L12.708 26.5657L8.14114 25.7151C7.75965 25.6441 7.39342 25.8964 7.32255 26.2786C7.25178 26.6609 7.50342 27.0283 7.88463 27.0993L10.8364 27.6492L7.36543 29.6583C7.02962 29.8527 6.91457 30.2832 7.10845 30.6199C7.23848 30.8457 7.47449 30.9719 7.71715 30.9719C7.83623 30.9719 7.957 30.9415 8.06756 30.8775L11.5385 28.8684L10.5376 31.7061C10.4084 32.0726 10.5999 32.4748 10.9655 32.6044C11.0429 32.6318 11.1219 32.6449 11.1995 32.6449C11.4887 32.6449 11.7595 32.4644 11.8615 32.1755L13.4101 27.785L15.3387 26.6686L15.3101 32.2093L14.1695 34.1899L11.0482 35.2534C10.7594 35.3518 10.567 35.6259 10.5721 35.9318L10.6491 40.504C10.6532 40.7512 10.7865 40.9781 11 41.1018C11.1086 41.1645 11.2299 41.1961 11.3511 41.1961C11.4684 41.1961 11.5858 41.1666 11.6919 41.1077L15.6797 38.8884C15.9464 38.7399 16.087 38.4358 16.0275 38.1358L15.3856 34.8939L16.5262 32.9133L21.2978 30.1182V32.3508L18.2796 35.8907C18.0277 36.1863 18.0623 36.6306 18.3571 36.8833C18.6519 37.1358 19.0951 37.101 19.3471 36.8056L21.2978 34.5177V38.5359C21.2978 38.9247 21.6122 39.2399 22 39.2399C22.3877 39.2399 22.7021 38.9247 22.7021 38.5359V34.5177L24.6528 36.8056C24.7917 36.9684 24.9886 37.052 25.1869 37.052C25.3483 37.052 25.5105 36.9966 25.6428 36.8832C25.9375 36.6305 25.9722 36.1862 25.7203 35.8906L22.7022 32.3507V30.1181L27.4739 32.9132L28.6145 34.8938L27.9725 38.1357C27.913 38.4357 28.0536 38.7399 28.3203 38.8883L32.3082 41.1076C32.4143 41.1665 32.5317 41.196 32.649 41.196C32.7702 41.196 32.8915 41.1645 33.0001 41.1017C33.2136 40.978 33.3469 40.7511 33.351 40.5039L33.4279 35.9317C33.4331 35.6259 33.2407 35.3518 32.9518 35.2533L29.8305 34.1898L28.6899 32.2092L28.6614 26.6685L30.59 27.7849L32.1386 32.1754C32.2405 32.4644 32.5113 32.6449 32.8006 32.6448C32.8783 32.6448 32.9573 32.6317 33.0346 32.6043C33.4002 32.4747 33.5917 32.0725 33.4624 31.706L32.4616 28.8683L35.9325 30.8774C36.0431 30.9414 36.1639 30.9719 36.2829 30.9719C36.5256 30.9719 36.7616 30.8455 36.8916 30.6198C37.0855 30.2831 36.9705 29.8526 36.6347 29.6582L33.1637 27.6491L36.1155 27.0992C36.4967 27.0282 36.7483 26.6608 36.6775 26.2785C36.6067 25.8963 36.2403 25.644 35.859 25.715L31.2921 26.5657L29.3635 25.4493L34.1638 22.7038H36.4449L38.9243 24.8822C39.0555 24.9976 39.2207 25.0567 39.3871 25.0567C39.5114 25.0567 39.6364 25.0236 39.7482 24.9563L43.6591 22.6034C43.8706 22.4762 44 22.247 44 21.9998C44 21.7526 43.8707 21.5236 43.6592 21.3963ZM31.9666 4.6926L32.0152 7.57867L29.8872 8.30372L29.4495 6.09344L31.9666 4.6926ZM27.2803 12.8306L27.2529 18.1466L22.7022 20.7808V15.5125L27.2803 12.8306ZM12.0334 4.69269L14.5506 6.09354L14.113 8.30372L11.985 7.57867L12.0334 4.69269ZM16.7198 12.8306L21.2979 15.5125V20.7808L16.7472 18.1466L16.7198 12.8306ZM4.53538 23.4852L2.06669 22L4.53538 20.5148L6.22573 22L4.53538 23.4852ZM11.4394 22L16.0451 19.3658L20.5958 22L16.0451 24.6341L11.4394 22ZM12.0335 39.3073L11.9849 36.4212L14.1129 35.6961L14.5505 37.9064L12.0335 39.3073ZM16.7198 31.1693L16.7472 25.8534L21.2979 23.2192V28.4875L16.7198 31.1693ZM31.9667 39.3073L29.4495 37.9064L29.8871 35.6962L32.0151 36.4213L31.9667 39.3073ZM27.2803 31.1693L22.7022 28.4876V23.2193L27.2529 25.8534L27.2803 31.1693ZM27.955 24.6341L23.4043 22L27.955 19.3658L32.5607 22L27.955 24.6341ZM39.4647 23.4851L37.7744 22L39.4647 20.5148L41.9334 21.9999L39.4647 23.4851Z" fill="white"/>
</svg>
