<svg width="36" height="36" viewBox="0 0 36 36" fill="none" xmlns="http://www.w3.org/2000/svg">
<path d="M35.7212 17.5061L32.5213 15.581C32.3074 15.4523 32.0348 15.4768 31.8471 15.6417L29.8186 17.424H27.9522L24.0247 15.1778L25.6026 14.2644L29.3391 14.9603C29.3746 14.967 29.4099 14.9701 29.4447 14.9701C29.7161 14.9701 29.9575 14.7764 30.0089 14.4993C30.0668 14.1865 29.8609 13.8859 29.549 13.8278L27.1339 13.3779L29.9738 11.7341C30.2486 11.5751 30.3427 11.2228 30.1841 10.9473C30.0254 10.6719 29.6741 10.5774 29.3994 10.7365L26.5595 12.3804L27.3784 10.0586C27.4841 9.75873 27.3274 9.42967 27.0283 9.32362C26.7292 9.21749 26.4009 9.37477 26.2952 9.67457L25.0282 13.2668L23.4502 14.1802L23.4737 9.64692L24.4068 8.02643L26.9606 7.15628C27.1969 7.0758 27.3544 6.85148 27.3502 6.60121L27.2872 2.86037C27.2838 2.65809 27.1748 2.47241 27.0001 2.37127C26.8253 2.27013 26.6105 2.26837 26.434 2.36643L23.1713 4.18222C22.953 4.3037 22.838 4.55251 22.8866 4.79795L23.4118 7.4504L22.4787 9.07089L18.5746 11.3578V9.53112L21.044 6.63485C21.2502 6.39303 21.2218 6.02949 20.9806 5.82276C20.7395 5.61611 20.3768 5.6446 20.1706 5.88634L18.5745 7.75834V4.47065C18.5745 4.15257 18.3173 3.8947 18 3.8947C17.6828 3.8947 17.4256 4.15257 17.4256 4.47065V7.75834L15.8295 5.88642C15.6233 5.64467 15.2607 5.61626 15.0195 5.82283C14.7784 6.02956 14.75 6.3931 14.9561 6.63493L17.4256 9.5312V11.3579L13.5214 9.07097L12.5882 7.45047L13.1135 4.79802C13.1622 4.55259 13.0471 4.3037 12.8289 4.18229L9.56606 2.36651C9.38959 2.26837 9.17481 2.27013 9.00002 2.37135C8.8253 2.47248 8.71623 2.65817 8.71286 2.86044L8.64998 6.60129C8.64576 6.85148 8.80317 7.0758 9.03954 7.15635L11.5933 8.0265L12.5265 9.647L12.5499 14.1803L10.972 13.2669L9.70493 9.67465C9.59923 9.37477 9.27102 9.21765 8.97183 9.3237C8.67273 9.42975 8.51601 9.75881 8.62179 10.0587L9.44068 12.3805L6.60081 10.7366C6.32598 10.5775 5.97471 10.672 5.81608 10.9474C5.65745 11.2229 5.75159 11.5751 6.02634 11.7342L8.86621 13.378L6.45114 13.8279C6.13924 13.886 5.93335 14.1866 5.99126 14.4994C6.04265 14.7765 6.28401 14.9702 6.55546 14.9702C6.59024 14.9702 6.62562 14.967 6.66101 14.9604L10.3975 14.2644L11.9755 15.1778L8.04786 17.424H6.18152L4.15295 15.6417C3.96529 15.4769 3.69277 15.4524 3.47876 15.581L0.278886 17.5061C0.105856 17.6103 0 17.7977 0 18C0 18.2023 0.105856 18.3898 0.278886 18.4939L3.47876 20.4189C3.57029 20.474 3.67247 20.501 3.77419 20.501C3.9103 20.501 4.04549 20.4526 4.15288 20.3582L6.18152 18.5759H8.04786L11.9754 20.8222L10.3974 21.7356L6.66093 21.0396C6.34881 20.9816 6.04916 21.188 5.99118 21.5007C5.93327 21.8135 6.13916 22.1141 6.45106 22.1722L8.86613 22.622L6.02626 24.2659C5.75151 24.4249 5.65737 24.7772 5.816 25.0526C5.9224 25.2374 6.11549 25.3407 6.31403 25.3407C6.41146 25.3407 6.51027 25.3158 6.60073 25.2634L9.4406 23.6196L8.62171 25.9414C8.51593 26.2412 8.67265 26.5703 8.97176 26.6764C9.0351 26.6988 9.09975 26.7095 9.16325 26.7095C9.39985 26.7095 9.62144 26.5618 9.70486 26.3254L10.9719 22.7332L12.5499 21.8198L12.5264 26.3531L11.5933 27.9736L9.03947 28.8437C8.80317 28.9242 8.64569 29.1485 8.6499 29.3988L8.71286 33.1396C8.71623 33.3419 8.8253 33.5276 9.00002 33.6287C9.08887 33.6801 9.18806 33.7059 9.28725 33.7059C9.38323 33.7059 9.47928 33.6818 9.56606 33.6336L12.8288 31.8178C13.047 31.6963 13.1621 31.4475 13.1134 31.202L12.5882 28.5496L13.5214 26.9291L17.4255 24.6422V26.4689L14.956 29.3651C14.7499 29.607 14.7783 29.9705 15.0195 30.1772C15.2607 30.3839 15.6233 30.3554 15.8295 30.1136L17.4255 28.2417V31.5294C17.4255 31.8475 17.6827 32.1054 18 32.1054C18.3172 32.1054 18.5744 31.8475 18.5744 31.5294V28.2417L20.1705 30.1136C20.2841 30.2469 20.4452 30.3153 20.6074 30.3153C20.7395 30.3153 20.8722 30.2699 20.9805 30.1772C21.2216 29.9704 21.25 29.6069 21.0439 29.3651L18.5745 26.4688V24.6421L22.4787 26.929L23.4118 28.5495L22.8866 31.202C22.8379 31.4474 22.953 31.6963 23.1712 31.8177L26.434 33.6335C26.5208 33.6817 26.6168 33.7058 26.7128 33.7058C26.812 33.7058 26.9112 33.6801 27.0001 33.6286C27.1748 33.5275 27.2838 33.3418 27.2872 33.1395L27.3501 29.3987C27.3543 29.1485 27.1969 28.9242 26.9605 28.8436L24.4068 27.9735L23.4736 26.353L23.4502 21.8197L25.0282 22.7331L26.2952 26.3253C26.3786 26.5618 26.6002 26.7095 26.8368 26.7094C26.9004 26.7094 26.9651 26.6987 27.0283 26.6763C27.3274 26.5702 27.4841 26.2412 27.3784 25.9413L26.5595 23.6195L29.3994 25.2634C29.4898 25.3157 29.5886 25.3406 29.686 25.3406C29.8846 25.3406 30.0777 25.2373 30.1841 25.0526C30.3427 24.7771 30.2486 24.4248 29.9738 24.2658L27.1339 22.622L29.549 22.1721C29.8609 22.114 30.0668 21.8134 30.0089 21.5006C29.9509 21.1879 29.6511 20.9814 29.3391 21.0396L25.6026 21.7355L24.0247 20.8222L27.9522 18.5759H29.8186L31.8471 20.3582C31.9545 20.4526 32.0897 20.5009 32.2258 20.5009C32.3275 20.5009 32.4298 20.4739 32.5212 20.4188L35.7211 18.4937C35.8941 18.3896 36 18.2021 36 17.9998C36 17.7976 35.8942 17.6102 35.7212 17.5061ZM26.1545 3.83941L26.1943 6.20073L24.4532 6.79396L24.0951 4.98555L26.1545 3.83941ZM22.3203 10.4978L22.2978 14.8472L18.5745 17.0024V12.692L22.3203 10.4978ZM9.84549 3.83949L11.9051 4.98563L11.547 6.79396L9.80589 6.20073L9.84549 3.83949ZM13.6798 10.4978L17.4256 12.692V17.0024L13.7022 14.8472L13.6798 10.4978ZM3.71077 19.2152L1.69093 18L3.71077 16.7848L5.09378 18L3.71077 19.2152ZM9.35948 18L13.1278 15.8448L16.8511 18L13.1278 20.1552L9.35948 18ZM9.84556 32.1605L9.80581 29.7992L11.5469 29.2059L11.905 31.0144L9.84556 32.1605ZM13.6798 25.5022L13.7022 21.1528L17.4256 18.9975V23.308L13.6798 25.5022ZM26.1546 32.1605L24.095 31.0144L24.4531 29.206L26.1942 29.7992L26.1546 32.1605ZM22.3203 25.5022L18.5745 23.308V18.9976L22.2978 21.1528L22.3203 25.5022ZM22.8723 20.1552L19.149 18L22.8723 15.8448L26.6406 18L22.8723 20.1552ZM32.2893 19.2151L30.9063 18L32.2893 16.7848L34.3091 17.9999L32.2893 19.2151Z" fill="white"/>
</svg>
